<?xml version="1.0" encoding="utf-8"?><svg xmlns="http://www.w3.org/2000/svg" version="1.1" baseProfile="tiny" width="800" height="600" viewBox="0 0 800 600"><g><g stroke="#000000" stroke-width=".98" fill="#FFFFFF"><path d="m317.64 254.45l.86-.05.87-.02.63.06.62.09 2.24.3.64.08.85.24.37.16.43.19.43.26.33.26 1.09 1.17 2.1 2.26.46-6.68.06-.93.64-2.58.14-.63.21-1.1 1.27-1.87.09-.17 4.95 1.23 2.26.57 2.87.66 4.42 1.01.71-2.56 1.03-3.44.29-.97.35-1.25.41-1.34.84-2.93.18-.68 1.05-3.6-3.56-.64-1.62-.57-.87-.29-3.1-1.3-1.26-.33-3.96-.99-1.2.08-1.6.02-3.01-.46-.6-1.02-1.37-2.25-.14-1.35-.32-3.44-.37-.24 0 0-.68-.44-.69-.45 0 0-1.83-1.2-.35-.37-1.57-1.58-.46-.45-1.52-1.55-.65-.44-1.25-.85-1.35-.9-.31-.13-1.82-.84-1.09-.28-.71-.18-.9-.41-.64-1.45-.25-.49-.61-.93-.94-.6-.7-.46-1.84-.39-.39-.4-1.07-1.06-1.33-3.06-.55-.67-1.2-1.54-.66-.78-.82-.74-1.03-.97-.95-.92-1.21-1.07-.37-.33-.91-.81-1.6-.72-1.69-.77-1.22-.3-.78-.19-1.4.31-.69.02-1.92.01-.99.01-1.69-.01-1.18.84-.93.65-1.52 1.3-.66.56-.18.21-.88 1.24-.75 1.05-1.06.92-1.39 1.2-.22.73-.65 1.98-.31.94-.51 1.08-.37.77-2.55-.5-1.27-.24-1.62.07-2.44.14-.48-.18-2.88-1.06-.99-.36-2.15-1.17-1.87-1.53-.51-.41-1.8-1.45-.67-.6-.9-.82-.82-1.17-.55-.75-1.05-1.29-.91-1.08.19-.93.42-1.9.08-.34-3.82-2.84-.48.2-2.92 1.29 0 .01-.73-.52-.63-1.5-.44-1.1-.49.61-1.07-.4-.01.07-.85.01-1.54.02.03-.2-1.41-.07-.31-.01.08-1.76-.89.02-.83.08.06-.41-2.92.63-.5.09-.16.07-.18.04-1.52.3-.06.38-.45.04-.11-.81-.44.04-1.02.04.01.26.01.59 0 .24-1.27 1.67-.79 1.05-.83 1.07-.19.25-.21-.22-.94-.97-.28-.29-.66-.77-.21-.04-.32-.07-.9-1.03-.62 1.07-.59 1.1-.22.38-.3.07-.13.12-.21.52-.44 1.05-.21.51-.17.59-.31 1.09-.34 1.2-.56-.1-.82-.15-.71-.2-.37-.1-.47-.65-.44-.5-.28.28-.1.11-.07.06.15.26 0 .27-.11.39-.11.33-.27.76-.14.43-.24.67-.2.58-.2.49-.23.58-.21.52-.33.98-.24.67-.24.44-.55 1.07-.23.44-.47-.31-.61.96-.69 1.09-.25 1.09-.24 1.1-.21.98-.17.13-1.45 1.1-1.3.82-.24-.64-.47-1.09-.09-.25-.28-.82-.07-.46-.02-.51-.01-1.07-.01-1.07-.85-.28-.1-.19-.25.18-.38.53-.12-.02-.43-1.32-.1-.34-.51-1.05-.31-.27-1.71-1.46-.9-.77-1.63.66-1.75.69 1.56 2.77.45.81 1-.51 1.03-.49.49 1.35.04.36.01.11 1.26-.01 1.32-.01-.6 1.1-.32.62-.47.92-.45.75-.4.42-.22.18-.75.27-.34.18-.81.36-.49.2-1.06.8-.97.72-.67.5.74.73-1.16.51-.79.36-.45.18-.86.13.05.29.85-.16.43.02.13.21-.01.26-.16.35-.92.39-2.02.9-2.16.95-1.46.64-2.22.98-1.73.76-1.48.65-2.03.89-1.37.61-.48.2-1.23.77-1.22.77-1.98 1.24-.37-.07-.17-.26-.39-.57-.29-.42-.12-.2-.1.05-.93.82-.94.83-.78.7-1.66 1.25-.37.31-.74.62-1.93 1.63-.48.41-.39.49-.99 1.33-.53.81-.4.67-.75.28-.3.1-.41.01-.29.63-.5 1.25-.32 1.14-1.46-.35-.06.31-.12.72 1.83.36-.44 1.43-.5.05-1.03.31-1.07.54-1.88 1.05-2.09 1.17-1.09.62-1.83 1.07-.85.57-.72.54-1.66 1.48-.26.23-.41.39-.61.65-.94.85-.8.82-.99 1.23-.62.63-.74.67-1.13.82-.85.55-1.58.93-2.26 1.23-1.35.72-1.35.81-1.38.8-.55.41-.28.26-.55.53-1.36 1.49-1.15 1.4-.86 1.12-.43.62-1.49 1.89-.16.26-.16.25-.53 1.11-.73 1.42-.32.69-.09.43-.05.56-.12.34-.12.29.26.7.21 1.37.29.63.82 1.2.21.42.47.59.56.61.34.5-.47.29-.59.12.16.72-.14.54-.16.14-.07.4.06.46-.16.57-.25.32-.2.41 1.03.47.81.36-.24 1.01 1.64.95.83.46 1.35.81-.31.41.72.54-1.41 1.78 1.14.73.38.43.91 1.07.47.54 1.46-1.64.54.22.17.07 1.24.77.26-.22.79-.74.75-.59.85.68.73-.78 1.26-1.13.51-.41.63-.46.66-.39.31-.23.13-.14.19-.2.31-.4.31-.35.48-.31.46-.3.14-.1.33-.22.26-.19.36-.32.35-.33.41-.4.44-.54.4-.51.31-.36.52-1.13 1.43.67.15.33 1.03.66 1.08.51.64.39.35-.44 2.12 1.6 1.77-1.48 1.08 1.06.75-.66 1.33-1.11 2.06-1.78 0 .2 1.92 2.16 1.96-1.7 1.24-1.09 2.65 1.66 2.92 1.83.44.42.22.13.66.45 1.9-2.08.58-.64.25-.1.62.04.17.13.56 1.41.21.44.59.95.2-.15 1.43-.85.71-.35.57-.24.44-.11.89-.17.8-.1 1.06.1 3.32.24.1-.39.35-1.5.58-1.57.53-.87.35-.47.72-.58.43.77.6 1.14.2.25 2.41 1.4.22-.01 3.73-1.91 1.63-.85.35-.17.85-.27 1.03 1.24 1.2 1.47.37.48 1.03 1.26.24.29 1.5 1.85.22.26.4.46.3.38.63.77.16.13.19-.02.86-.58.53-.36.82-.6.61-.47.49-.38.16-.05.04-.6-.01-1.07-.19-1.54-.07-.28-.17-.35-.24-.42-.42-.46.45-.41.18-.2.36-.25 2.33 2.05.73.63 1.05.9.1-.2.46.35 1.01.75.55.39.58-.66.8-.91.76.15 1.34.25.02-.48.06-.62.09-.99.12-1.47 1.94.23 1.68.18.42.04-.35-.78-.42-1.05-.17-1.12 2.14.07.67 0 .36.08 1.31.25.15-.12.62-1.07.53-.72 1.41 1.06 1.55 1.19 1.35.84.85.52 1.14 1.08.24.39.24.39.19.53.01.03.53 1.55.11.35.14.55.22.87.33 1.36.13 2.48.07.88.06 1.09.19.51.36.96.05.13 2.68.85.44.14 1.24-.13 1.41-.06.68-.04.45-.01.87-.7 1.05-.63.3-.78.08-.38.27-1.13.58-1.08.27-.96 1.45.05 1.2.5 1.27 1.1 2.27.79 1.75.16 1.97.84 1.25.24.73.13 2.02.31.8.44 2.16 1.21 1.44.58 1.34.55 2.27 1.16 1.49.77 1.98-2.1.65-.69 1.8-1.36 1.09-.4 1.85-.68 1.73-.72 2.32-.95 1.24-.52.35-.14.33-.14 1.52-.89 1.41-.57 2.52-1.83 1.08-.26 1.04-.22 2.12-.51 2.07-.48 1.53-.44.63-.19 1.75.6 1.18.44 1.23.37 1.47.44.81-.26.52-.18 1.41-.45 1.67-.98 1.8-1.05 1.8.51 1.81.54 1.76.5.65.19 1.41.55.97.4.25.11-.1-.22-.39-.85-.49-1.08 1.22-.49.87-.34-.15-2.1-.04-.75-.12-1.68-.07-1.22-.3-1.2-.29-1.13-.94-1.3-1.52-2.12-.05-.23-.39-2.39-.22-1.3-.26-1.09-.59-2.4-.23-.9.95-2.5.42-.3z" /><path d="m616.73 587.75l.42-.25 2.09-1.38 1.86-1.96 1.26-1.9.07-.19.56-1.33.27-1.87.35-2.66.15-1.03.22-.97.2-.84 1.1-.76 1.51-.22 1.2-.16 1-.12.82-.3.97-.34 1.08-.34 1.96-.61 1.91-1.46.73-.57.93-1.62.18-.33-.61-1.28-.49-1.05-.36-.76-.19-.3-.68-1.04-.72-1.06-.7-1.03-.23-.34-.43-.72-.61-1.02-.63-1.05-.53-.88-.08-.18-.44-1.05-.44-1.05-.43-1.05-.13-.31-.43-.75-.62-1.05-.17-.3-.46-.76-.62-1.05-.19-.32-.65-.74-.91-1.03-1.09-1.05-1.11-1.06-.24-.23-.18-.82-.25-1.03-.03-.08-1.48-.81-.13-.07-.55-.99-.49-.87-.06-.21-.35-1.02-.11-.38-.05-.67-.08-1.07-.03-.36-.22-.69-.33-1.06-.06-.16-.24-.9-.29-1.05-.13-.5.48-2.67-.15-.85-.12-.67-.34-1.61-.26-1.32.37-.99.3-.78.7-1.84.25-.62.45-1.2.19-.53.57-1.52.61-1.63.51-1.32.09-.52.25-1.58.03-.25.2-1.92-.14-1.72-.09-.98-.15-.85-.34-1.73-.5-1.22-.19-.63-.55-1.84-.1-.31-.01-1.53 0-.27-.36-1.58-.43-1.77-.04-.15-.25-1.66-.28-1.83-.09-.65-.07-1.17-.02-.46-.53-1.22.66-1.85.21-.55.71-1.21.26-.45.32-.68-.21-.71-.22-.81.04-1.05.07-1.77.15-1.79.15-1.83.17-.68.26-1.1.47-1.83.46-1.8.04-.15.14-1.69.03-.25.18-1.57.19-1.7-.51-1.82-.11-.37-.52-1.47-.04-.13.19-1.68.1-.95.28-.9.11-.31-1.08-.43-1.22-.5-.42-.21-1.63-.85-1.03-.33-2.26-.69-.36-.21-1.83-.97-.71-.88-.68-.87-1.06-1.06-.91-1.16-.16-.57-.28-.9-.4-.92-.14-.33-.45-1.38-.12-1.18-.59-.68-.8-.95-1.75-.85-2.51-1.01-.66-.26-.08-.72-.13-.29-.48-1.16-.33-.75-.03-.41-.11-1.2-.02-.2-.03-.99-.03-.81-.08-.34-.27-1.19-.08-.33-.07-.86-.05-.68 0-.52.01-1.19 0-.47-.36-.7-.6-1.18-.49-.94-.07-.25-.3-1.17-.41-1.59 1.27-.78 1.45-.87.1-.05 1.51-1.15 1.25-.95.21-.24 1.04-1.13 1.04-1.11.07-.1 1.13-1.19.66-.71.59-.45.57-.44 1.17-.61 1.09-.54-.36-.66-.32-.6.05-.61.1-1.19.05-.63-.12-.57-.22-1.06-.02-.11-.22-1.18-.21-1.19-.16-.86-.12-.34-.41-1.1-.19-.45.05-.71.09-1.19.08-1.19.03-.41-.01-.78 0-.66.16-.52.38-1.21.39-1.19.06-.18.03-1.01.03-1.19 0-.31.13-.87.09-.71.42-.46 1.06-1.19 1.53-1.2.98-.75 1.58.01-12.86-11.91-13.22-12.25-8.47-7.84-19.08-4.94-14.17-1.41-13.88-1.39-10.34-1.04-2.05-.12-.55-.15-.11-.01-.39-.06-.6-.11-1.01-.17-.6-.1-2.13-.46-.21-.02-.16.04-.15.1-.44.36-1.08.86-.59.56-.65.59-.21.16.05.16.25 1.36.04.2 0 .17-.05.4-.11.28-.41.87-.56 1.28-.21.39-.18.23-.18.13-.33.23-.34-.36-.3-.29-.34-.32-.12-.08-.15-.05-.14-.02-.23.02-.72.05-.47.03-.36.04-.43.03-.39.04-.47.08-1.06.32-.63.19-.58.21-.47.18-.47.18-.51.28-.39.24-.18.14-.98.75-.93.78-.65.58-.26.19-.15.28-.41.57-.4.5-.27.27-.19.05-.23.02-.27.06-.34.02-.5 1.63-.73 2.34-.51 1.68-.18.57-1.39 2.64-.95 1.8-.72 1.38-.88 1.89-.73 1.53-.23.48 2.88 1.25 2.29 1.33 1.05.59.29.19 1.49 2.05.47.64.89 1.27.75 1.02.48.69.51.75 3.26-.49 1.07-.15 2.01 0 2.05-.08.93.62 1.66.65 3.28 2.32.9.62.88.6.94.66.68.56 1.27.99 1.08.84.72.55 1.05.78.25 1.24.55 2.61-.19.81-.28 1.06-.36 2.52-.34 2.42.21.84.52 1.78.51 1.67.53 1.81 1.12.44 1.63.61.05.03.14.1.2.15.15.11.15.12.14.1.15.11.13.1.16.11.14.11.14.1.14.11.14.1.15.11.14.1.14.11.15.11.13.1.15.11.16.12.13.1.14.1.15.11.13.1.13.1.07.05.11.07.16.09.16.1.17.1.15.09.16.09.17.1.16.1.17.1.16.09.16.1.16.09.15.1.1.05.17.1.16.1.15.09.12.07.15.13.12.11.12.11.12.11.13.11.12.11.13.11.12.11.12.1.13.11.12.11.12.11.12.11.13.11.13.11.2.18-.01.05-.03.11-.02.11-.02.12-.02.11-.03.11-.02.11-.02.12-.02.11-.03.11-.02.11-.02.11-.02.11-.02.1-.03.11-.02.12-.02.11-.02.11-.03.1-.02.12-.02.11-.02.11-.03.11-.02.11-.02.11-.02.11-.02.07.02.14.02.11.01.11.02.12.01.11.02.11.01.11.02.12.01.11.02.11.01.11.02.12.02.11.01.12.02.11.01.11.02.11.01.11-.01.11-.01.11 0 .1-.01.11-.01.12-.01.11-.01.11-.01.12-.01.11-.01.11-.01.11-.01.11-.01.11 0 .11-.01.11-.01.12-.01.11-.01.16-.01.06-.01.13-.01.11-.01.11-.01.11-.01.11-.01.11-.01.15.03.07.05.1.06.12.06.11.05.11.06.11.05.11.06.12.06.11.05.1.06.11.05.11.03.06.02.05.04.06.01.04.06.11.05.11.05.1.04.07.02.04.06.11.06.12.06.11.06.11.06.11.06.11.06.1.05.11.06.11.07.12.06.12.06.11.06.11.06.11.06.11.06.11.05.1.06.11.06.1.05.11.06.11.06.12.06.11.06.11.06.1.06.12.07.12.06.11.05.09.05.1.07.12.05.1.06.1.04.08.02.04.04.11.05.11.04.11.05.12.04.1.04.11.04.11.05.11.04.11.05.11.04.11.04.1.04.11.04.11.04.09.05.11.04.1.04.11.04.11.04.1.05.11.04.11.05.12.06.16.04.05.08.11.07.09.08.11.08.11.08.11.07.11.08.11.08.11.08.11.11.14.1.08.11.09.14.1.12.1.13.1.12.09.12.1.14.1.12.1.11.08.16.12.14.1.13.09.13.09.14.1.13.1.15.1.13.1.13.09.12.09.37.3.45.37.24.19.49.27.91.49.74-.13.39-.07.84-.4.82-.38.44-.07.66-.11 1.21-.19.68-.31.2-.1 1.38-.64 1.46-.58 1.4-.57 1.47-.38.97-.25.64.01 1.34.04.75.02.66.02.78.02.56.02.18-.03.22-.02.58-.07 1.3-.15.12.45.22.88.84 0 1.61.01 1.25.01 1.39-.01 1.17 0 .06-.35.09-.57.11-.65-.63-.68-.44-.49-.42-.46-.14-.45-.16-.5.69-.1 1.43-.21 1.42-.2 1.07-.15 1.17-.17.3.18 1.29.77.57.33.81.48 1.33 1.06 1.02.81.64.51.5.39 1.14.9 1.15.9 1.09.85 1.06.84 1.6.11 1.42.11 1.38.11 1.06.54.86.45.81.42.29.8.36 1 .32.87.29.82-.28.93-.32 1.05-.27.93-.2.66-.15.51-.39.67-.55.94-.4.71.03.4.06.7.05.67.14.72.26 1.34.06.76.05.57.06.59.21.7.1.33.21.71.09.31-.18.66-.39.58-.57.83-.62.41-.44.3-.63.98-.28.44-.29.46-.23.53-.44 1-.12.48-.13.54-.16.64-.23.99-.43.73-.16.26-.4.74-.43.57-.19.12.17.09.48.32.79.36.37-.02.11 0 .87.01.98.01.06.07-.17.27.03.08-.07.17-.06.19-.15.43-.3.88-.09.32-.19.64-.2.68-.1.33-.25.86-.34 1.17.17.29.11.29.43.9.08.95.07.8.04.38-.08.73-.13 1.14-.08.76-.1 1.02-.08.7-.33 1.25-.12.79-.09.7-.25.5-.5 1-.55 1.07-.59 1.31-.6 1.34-.57 1.27-.34 1.41-.29 1.19-.21.85-.36 1.48-.89 1.52-.5.87-2.57.22-.78-.89-2.33-2.69-.15.13-.95.73-.69-.09-1.05-.6-.78-.67-.61-.5-.65-.67-1.04-1.07.38-1.69-.62-.28-2.32-1.07-.7.53-.83 1.45-.46.88-.28.52-.61 2.56-.03.9-.05 1.79.53 1.26 1.78.76-.29.48-.99 1.61.33 1.19.31 1.08-1.76 1-.17.67-.58 2.11-2.18-.98-.95.46-.72 1.28-.01 1.97.27.75.73 2.09-.13.86-.34 2.06.21.83.25 1.07 1.68 1.7.57.58.69.92.9 1.22.19.69.11.61-.18.61-.53 1.02-.49-.08-.68-.45-1.07-.33-.62-.79-.58-.4-.96-.48-.67-.07-.41-.4-.48-.3-1-.78-.07 1.4-.43 1.08-.15.14-.1.1-.09.03-.17.11-.49.14-1.49-.49-.01-.19-.36-.06-.27.03-.46-.15-.08-.07-.52-.04-.4.02-.18.03-.07.05-.18.09-.07.2-.04.48.36.73-.02.14-.14.87.13.19.32.41.05.3.22.31.06.29.2.31.02.29.09.22.11.24-.26.43-.3.53-.09.51-.08.42-.07.53-.03.48.02.62-.07.58-.09.37-.15.49-.04.22-.05.23-.17.13-.08.18.04.43.15.23.08.17.08.01.12.19.23.43-.02.81-.05.08-.06.37.04.27.07.29.4.7.17.31.18.26.16.11.08.56.24.6.06.38-.02.27.13.28.15.48-.04.19.01.32-.1.7-.05.42 0 .36-.09.26-.12.42.01.1.13.54.02.25.39 1.05.26.35.12.1.2.27.24.31.61.63.29.13.13.19.32.57.45.44.32.2-1.11.67-1.23.75-1.22.72-1.35.73-.88.48.15 1.74.09 1.14.01.96.52.7.35.91.01.32.04 1.37.32 1.33 1.32.23 1.69.29 1.19 1.15.87.5.84.85.86.88.75 1.61.17.52 1.07.53.24.8.31 1.29.45.72.34.52.52 1.5.44 1 .19.52.35 1.45 1.39 1.67.4.51 1.88 2.95.32 1.3.56 2.41.49 1.57.41 1.13.46 1.02.42.92.12.25.11.26.12.24.11.24.12.26.13.29.11.22.12.24.13.25.13.27.12.25.13.24.09.18.15.08.37.19.39.21.42.21.37.2.4.21.42.22.3.16.06.03.39.16.38.16.4.17.37.16.37.15.27.12.12.03.38.11.38.1.41.12.43.12.33.09.38.1.39.11.34.09.04 0 .37-.04.38-.03.39-.04.37-.03.41-.04.33-.03.36-.04.32-.03.07-.01.39-.05.37-.06.38-.05.71-.11.84-.12.26-.05.41-.07.37-.07.37-.07.43-.08.37-.07.51-.1.22-.01.38-.01.39-.01.42-.01 1.18-.04.31-.05.39-.06.39-.06.38-.05.39-.06.37-.06.4-.06.39-.05.48-.07.32-.05.36-.05.39-.06.39-.05.39-.05.8-.11.25.02.39.04.43.03.34.04.37.03.31.03.08.02.39.1.39.1.39.1.4.1.49.12.33.15.34.16.35.16.16-.06.25-.09.32-.11.4-.14.3-.15.35-.18.3-.14.16-.09.33-.16.32-.16.37-.19.52-.21.33-.13.4-.16.22-.09 1.77-.71.32-.13.16-.06.21-.12.23-.13.07-.04.24-.14.12-.06.23-.13.09-.06.22-.12.09-.05.23-.14.1-.05.24-.14.84-.48.18-.1.13-.08.14-.08.19-.1.24-.14.15-.08.26-.16.2-.12.14-.08.18-.1.16-.1.21-.12.26-.16.2-.11.24-.14 0 0z" /><path d="m523.03 224.77l.58-.17.48-.21.43-.39 1.45 1.24.87.71 1.36 1.15.81.71.46.37 1.15-1.77 1.09-1.69.69-1 .69-1.05.3-.46 1.52-2.32 1.29-1.98.72-1.09.8-1.23.81-1.24.34-.5.81-1.22.76-1.15 1.08-1.68.71-1.09.91-1.37.86-1.36.46-.72.13-.19 2.09-3.17-.42-.25-.4-.21-.52-.28-.65-.39-.55-.29-.55-.26-.69-.29-.67-.22-.87-.2.46-1.34.45-1.35.11-.32.49-1.51.29-.72.32-.99.14-.52.29-1.04.59-2.2.09-.27.09-.32-1.27-.46-1.9-.6-.04-.02-.86-.35-.19-.11-.2-.21-.72-.67-.71-.68-1.44-1.37-1.56-1.43-.53-.42-.42-.53-.67.62-1.53 1.52-1.68 1.81-.15.16-.91.94-2.9 3.14-3.08 3.25-2.99 3.19-3.07 3.25-1.64 1.75-1.33 1.41-1.74 1.87-1.26 1.35-2.47 2.61-.63.67.76.81.66.75.89 1.01 2.42 2.65 2.01 2.21 1.89 2.07.61.66 2.47 2.72 1.65 1.72.88.55z" /><path d="m328.72 219.65l1.88-.68.86-.34 1.02-.68 1.66-2.26.05-.28.42-2.49.34-1.88.22-.54.63-1.56.27-.77.06-.16.79-2.39.34-1.14.45-.9.39-.83.04-.09.57-1.21.61-1.43-.07-1.82-.08-1.88-.13-1.66-.16-1.77-2.68-2.02-1.23-.91-.32-1.1-.42-1.43-.56-.58-.68-.68-1.27-1.16-.7-.16-.71-.16-1.44-.31-.74-.35-.53-.25-1.23-.56-1.12-.58-1.13-.85-1.2-.89-.11-.29-.31-.85.56-.82-.71-.3-1.98-.81-.82-.33-1.75-.77-1.1-.77-2.31-1.63-.6 1.52.42 2.02.14.71-.04 1.28-.05 1.63-.11.33-.73 1.96-.89 2.42-2.86-1.49-1.54-.78-2.01-1.05-2.28-1.19-.55-.37-2.72-1.85-2.93-1.97-1.03-.7.12-1.3.11-1.16.08-.81.15-1.63-.43-.37-.57-.5-1.73-1.5-1.15-1-1.15-.99-1.67-1.42-.53-.56-1.1-1.13-1.58-1.63-.14-.14-.42-.45-.8-.35-.27.07-.91-.29-.29-.36.17-.76.28-1.21-5.69-1.17-.01-.99-1.03-.29-.43-.1-.49-1.13-1.17-.85-1.67-.24-.15-1.27-.04-.31-1.55-.87-1.5-2.05-.24-.74-.15-1.13-.24-1.76-1.59.61-1.02-.75-1.34-1.39-.79-1.1-.69-.74-.75.02-.95.22-.51-.33-1.02-.8-1.13-1.13-.46-.8-.43-.76-1.13-.95-2.05-1.73-.97-.78-.08-2.59.71-2.05.2-1.3.29-1.72.27-1.7.28-1.69.26-1.5-.16-.21-1.35-1.72-1.32-1.71.49-1.73.42-1.53.04-.15-.27-1.02-.1.06-1.14.98-1.05.39-1.4-.38-.19-.04-.16-.06-.76 2.02-2-1.38-.58-.01-.21.11-.44.42-.6.79-.3.33-.73.61-.69.93-.8-.36-.11.24-.22.26-.26.26-.31.19-.62.45-.38.33-.41.42-.25.34-.27.43-.24.46-.32.46-.11-.05-.16.49-.56 1.72-.38-.1-1.04-.27-.12.39-1.22-.14-.31.56-.12.21-.44.81-.49.9-.95-.15-.42-.08-1.82-.29-.42 1.05-.95 1.8-.23.41-.49-.34-.47.48-.48-.48-.86.51-.22.12-.27.19-.93.61-.32.23-.85-.59-1.47-1.04-.07.21-1.14-.24-.83-.2-.44-.08.2-.95-2.03-.49-.29-.06-.22 1.58-1.33-.09-.26-.1-.94-.18-1.78-.32-.21 1.11.09 1.01.02 1.48-1.34.24-.89.19-.46.1-1.28.3-2.13.23-1.19.11.25-1.26.28-1.44-2.55-.41-.16.57-.96-.35-2.08-1.19-1.92-1.08-.62-.36-.16-.1-1.91-1.09-.6-.37-1.82-1.08-.73.78-1.06 1.34-1 1.24.81.6-.95 1.67-1.08 1.89.49.31-.8 1.47-.55.9-1.24 1.55-.45.53-.28.37-.47.88-.39.56-.23.45-.21.47-.67.82 1.12.54-.14.29-.44.98-.35.9-.25.6.17.09-.46.6-.43.55-.52.66-.27.34.41.3-.22.55-1.08.32-.41.26-1.12 1.25-.94 1.05-.68.58-.19.27-.32.41-.04.31.11.51 1.26-.05.13.15.31 1.03.18.34-.08.06-.4.28-.25.18-.85.26-.48.06-.83-.05-.27.43-.14.47-.04.3.11.37.19.46.2.32.19.16.27.09.36.09.51.05.04.31.62 0 .96-.07.4.11.36.24.07.72.12 1.05-.04.59 0 .17-.01.15.43.36-.11.44-.01.22-.02.53-.03.78-.03.47-.01.53-.01.35-.03.43-.01.34-.14.44-.1.32-.23.59-.09.26-.17.23-.16.21 1.69.74.07.12-.46.96-.74 1.57-.29.64-.52 1.08-.15.32-.19.41-.13.28-.29.61 2.6-.04-.02.13-.17.32-.21 1.24-.21 1.19.02.41.74.15.8.15.33.11-.53 1.51-.32.89-.45.86-.58 1.12-.01.18-.46-.08-.05.52-.09 1.1.19 0 2.17.4-.14.23-.94 1.73-.31.55 2.43.95-.17.25-1.08 1.69-.69 1.08 1.73.64 2.5.93-.62.81-1.27 1.72-.3.4.69.43-.13.13.67.25-.34.55-.02.96-.15.6-.26 1.01.54.68 0 0 .48.18-.54 1.54-.35 1.05-.23.66-.29.84-.23.7-.28.79-.56 1.62-.24.64 1.82.46.98.25.26.07 1.29.43.5.24 1.63.77.72.09.86-.13.45-.18.79-.36 1.16-.51-.74-.73.67-.5.97-.72 1.06-.8.49-.2.81-.36.34-.18.75-.27.22-.18.4-.42.45-.75.47-.92.32-.62.6-1.1-1.32.01-1.26.01-.01-.11-.04-.36-.49-1.35-1.03.49-1 .51-.45-.81-1.56-2.77 1.75-.69 1.63-.66.9.77 1.71 1.46.31.27.51 1.05.1.34.43 1.32.12.02.38-.53.25-.18.1.19.85.28.01 1.07.01 1.07.02.51.07.46.28.82.09.25.47 1.09.24.64 1.3-.82 1.45-1.1.17-.13.21-.98.24-1.1.25-1.09.69-1.09.61-.96.47.31.23-.44.55-1.07.24-.44.24-.67.33-.98.21-.52.23-.58.2-.49.2-.58.24-.67.14-.43.27-.76.11-.33.11-.39 0-.27-.15-.26.07-.06.1-.11.28-.28.44.5.47.65.37.1.71.2.82.15.56.1.34-1.2.31-1.09.17-.59.21-.51.44-1.05.21-.52.13-.12.3-.07.22-.38.59-1.1.62-1.07.9 1.03.32.07.21.04.66.77.28.29.94.97.21.22.19-.25.83-1.07.79-1.05 1.27-1.67 0-.24-.01-.59-.01-.26 1.02-.04.44-.04.11.81.45-.04.06-.38 1.52-.3.18-.04.16-.07.5-.09 2.92-.63-.06.41.83-.08.89-.02-.08 1.76.31.01 1.41.07-.03.2 1.54-.02.85-.01.01-.07 1.07.4.49-.61.44 1.1.63 1.5.73.52 0-.01 2.92-1.29.48-.2 3.82 2.84-.08.34-.42 1.9-.19.93.91 1.08 1.05 1.29.55.75.82 1.17.9.82.67.6 1.8 1.45.51.41 1.87 1.53 2.15 1.17.99.36 2.88 1.06.48.18 2.44-.14 1.62-.07 1.27.24 2.55.5.37-.77.51-1.08.31-.94.65-1.98.22-.73 1.39-1.2 1.06-.92.75-1.05.88-1.24.18-.21.66-.56 1.52-1.3.93-.65 1.18-.84 1.69.01.99-.01 1.92-.01.69-.02 1.4-.31.78.19 1.22.3 1.69.77 1.6.72.91.81.37.33 1.21 1.07.95.92 1.03.97.82.74.66.78 1.2 1.54.55.67 1.33 3.06 1.07 1.06.39.4 1.84.39.7.46.94.6.61.93.25.49.64 1.45.9.41.71.18 1.09.28 1.82.84.31.13 1.35.9 1.25.85.65.44 1.52 1.55.46.45 1.57 1.58.35.37 1.83 1.2 0 0 .69.45.68.44 0 0 .37.24z" /><path d="m654.37 560.87l.92-.31.86-.25 1.75-.51.52-.2 2.02-.83.62-.26.73-1.1 1.04-1.57.83-1.24.04-.22.2-1.49.21-1.47.22-1.48.21-1.44.13-.98.07-.47.19-1.46.11-.78-.29-.69-.6-1.46-.14-.32-.94-2.29-.23-.77-.15-.43-.45-1.38-.16-.51-.31-.96-.46-1.39-.41-1.38-.25-.83-.2-.64-.44-1.45-.22-.73-.25-.78-.41-1.4-.33-.76-.51-1.2-.39-.91-.6-1.27.34-1.22.23-.84.39-1.38.32-1.09.38-1.29.44-1.46.38-1.36.41-1.48.19-.71.2-.65.08-.31.16-.58.22-.76.38-1.36 1.12-1.26.68-.78 1.07-.23.98-.2 1.64-.35 1.44-.33.63-.34.99-.52 1.15-.32.76-.23.94-.99.24-.26 1.36-1.46 1.27-1.35 1.31-1.45.22-.63.17-.52.49-1.41.4-1.17.4-1.16.4-1.18.2-.58.35-1 .16-.46.22-.37.23-.39.65-1.09.46-.76.59-.98.64-1.07.68-.18.8-.19.59-.1.6-.11 1.19-.65.22-.08.87-.29.83-.17.54-.11.36-.28.83-.6.82-.7.64-.47.52-.39.82-.68.2-.14.81-.6.6-.57.77-.99.08-.13.75-1.12.12-.16.37-.78.21-.45.52-.92.14-.25.63-.92.7-1.01.32-1 .42-.6.33-.73.51-1.15.52-1.13-.41-1.11-.12-.29-.35-.89-.23-.54-.15-.45-.15-.51.03-.86.08-1.06.11-1.08.07-.58.06-.63.1-.81.03-.43.05-.49.09-.64.21-1.15.21-.94.18-.86.13-.61.15-.86.2-1.17.1-.59-.05-.67-.07-1.03-.04-.59-.02-.56-.03-1.14 0-.3-.13-.84-.14-1-.51-1.31-.13-.47-.05-.7.02-.85.07-.52.09-.61 0-.29.02-1.17.02-1.18-.01-.68-.1-.5-.16-.77.01-.43.02-1.03.24-.97.17-.67-.55-.3.07-.2.25-.85.19-.32.46-.83.53-.86-1.09-.67-1.2-.41-.23-.34-.09-.13-.24-.36-.05-.07-.15-.23-.17-.24-.1-.14-.52-.63-.64-.51-.62-.5-.61-.72-.84-.99-1.22-1.07-.8-.79-.93-.93-.85-1.02-.54-.66-.63-.91-.26-.66-.56-1.42-.28-.62-.31-.73-.3-.68-.31-1.04.16-.95-.15-.83-.29-1.55.74-2.18-.89-.46-1.58-.97-1.4-.92-.53-.35-.34-1.34-.02-.41-.03-.51.44-1.29-.43-.63-.25-.4-.79-1.35-.78-1.24-.38-.83-.4-1.74-.05-1.44-.2-.93-.25-1.28-.32-.84-.48-1.21-.57-.89-.69-1.07.59-1.01.39-.67.05-1.47.06-1.93.09-1.25.04-.54.1-.3.33-.91.35-.88.52-.71.6-.71.55-.49.58-.54.74-.75.62-.65.45-.53.38-.43.43-.49.63-.74.37-1.28 2.09.51 2.05.47 1.46-.09 1.04-.08.99-.06 1.43-.11.15-1.09.25-1.88.39-1.25.36-1.15.26-.84.29-.92.19-.6 2.58-.68.39-.61.22-.34.58-.91.74-1.18-.39-.58-.29-.37-.41-.5-.36-.44-.72-.68-.48-.47-.2-.19-.1-.08-1.49-1.16-.42-.26-1.47-.88-1.63-.93.5-1.13.44-.99.43-.99-.44-.42-.34-.05-.09-.02-.74-.35-.76-.42-.18-.1-.4-.22-.37-.21-.53-.16-1.1-.34-.22-.07-.42-.17-1.14-.57-.34-.17-.26-.11-.47-.18-.61-.12-.37 0-.3-.06-.46-.32-.4-.46-.19-.29-.2-.32-.44-.67-.25-.33-.3-.33-.37-.28-.3-.2-.55-.28-.25-.13-.12-.06-.9-.54-.1-.05-.08-.05-.59-.42-.47-.41-.58-.38-.5-.29-.19-.1-1.66-.88-.51-.27-.49.18-.18.06-.45.14-.84.29-.7.23-.15-.14-.25-.17-.09.11-.2.25-.94.63-.83.66-.53.45-.98.3 0 0-.29.09-1.37.41-1.75 1.04-.89.68-.51.4-.83.64-1.33.97-.51.63-.51.64-.02.36-1.16.72-.84.51-.71.37-.9.4-.95.46-.7.31-.25.11-2.44.89-.55.27-2.28 1.04-.8.55-.92.69-.64 1.15-.05.4-.27 1.98-.22 1.72-.84.97-2.53 1.23-1.13.36-1.09.32-1.07.5-1.37.61-.99.99-.23.64-.38 1.16-.24.67-2.2 1.16-3.19 1.97-.71.43-1.48.92-2.57 1.14-.65.34-2.57 1.29-1.4.15-.76.55-1.53 1.12-2.01 1.57-.45.57-.96 1.2-1.48 1.77-.37.57-1.25 1.99-1.58-.01-.98.75-1.53 1.2-1.06 1.19-.42.46-.09.71-.13.87 0 .31-.03 1.19-.03 1.01-.06.18-.39 1.19-.38 1.21-.16.52 0 .66.01.78-.03.41-.08 1.19-.09 1.19-.05.71.19.45.41 1.1.12.34.16.86.21 1.19.22 1.18.02.11.22 1.06.12.57-.05.63-.1 1.19-.05.61.32.6.36.66-1.09.54-1.17.61-.57.44-.59.45-.66.71-1.13 1.19-.07.1-1.04 1.11-1.04 1.13-.21.24-1.25.95-1.51 1.15-.1.05-1.45.87-1.27.78.41 1.59.3 1.17.07.25.49.94.6 1.18.36.7 0 .47-.01 1.19 0 .52.05.68.07.86.08.33.27 1.19.08.34.03.81.03.99.02.2.11 1.2.03.41.33.75.48 1.16.13.29.08.72.66.26 2.51 1.01 1.75.85.8.95.59.68.12 1.18.45 1.38.14.33.4.92.28.9.16.57.91 1.16 1.06 1.06.68.87.71.88 1.83.97.36.21 2.26.69 1.03.33 1.63.85.42.21 1.22.5 1.08.43-.11.31-.28.9-.1.95-.19 1.68.04.13.52 1.47.11.37.51 1.82-.19 1.7-.18 1.57-.03.25-.14 1.69-.04.15-.46 1.8-.47 1.83-.26 1.1-.17.68-.15 1.83-.15 1.79-.07 1.77-.04 1.05.22.81.21.71-.32.68-.26.45-.71 1.21-.21.55-.66 1.85.53 1.22.02.46.07 1.17.09.65.28 1.83.25 1.66.04.15.43 1.77.36 1.58 0 .27.01 1.53.1.31.55 1.84.19.63.5 1.22.34 1.73.15.85.09.98.14 1.72-.2 1.92-.03.25-.25 1.58-.09.52-.51 1.32-.61 1.63-.57 1.52-.19.53-.45 1.2-.25.62-.7 1.84-.3.78-.37.99.26 1.32.34 1.61.12.67.15.85-.48 2.67.13.5.29 1.05.24.9.06.16.33 1.06.22.69.03.36.08 1.07.05.67.11.38.35 1.02.06.21.49.87.55.99.13.07 1.48.81.03.08.25 1.03.18.82.24.23 1.11 1.06 1.09 1.05.91 1.03.65.74.19.32.62 1.05.46.76.17.3.62 1.05.43.75.13.31.43 1.05.44 1.05.44 1.05.08.18.53.88.63 1.05.61 1.02.43.72.23.34.7 1.03.72 1.06.68 1.04.19.3.36.76.49 1.05.61 1.28 2.02.08 1.84.09.29-.05 2.15-.41 2.13-.5 1.66-.39.49-.29 2.13-1.25 1.68-1.01.22-.46.41-.91 1.42-.46.36-.11z" /><path d="m531.53 289.97l1.19-.31.78-.27.31-.12.32-.13.44-.2.75-.33.79-.34.35-.16.48-.19.4-.13.48-.11-.11-.69-.06-.91-.09-1.13-.19-.09-.46-.23-.83-.45-.47-.24-.2-.06-.28-.05-.59-.08-.71-.02-1.37-.04-1.65-.03-1.68-.02-1.07-.03-.29-.05-.57-.1-.81-.18-.66-.15-.31-.09-.19-.09-.62-.42-.62-.43-1.04-.34-1.74-.64-1.08-.41-.47-.31-.63-.47-.32-.23-1.81-1.47-.37-.32-.08-.08-.13-.05 0-.12.18-1.07.39-1.93.08-.38.43-1.67.28-1.01.18-.59.34-.88.49-1.14.24-.42.4-.79.32-.6.23-.33.29-.38.42-.51.58-.7.66-.75.35-.42.18-.21.23-.34.49-.78.29-.55.23-.54.2-.54.18-.58.09-.31-2.75-.54-.55-.12-.95-.23-.66-.16-1.5-.42-2.83-.79-1.05-.35-.7-.24-.22-.09-.04-.02-1.56-.57-.54-.2-1.33 2.52-1.13 2.09-1.04 1.93-1.78 3.34-1.75 2.83-.01.01-1.44 2.6-.55.86-.48.7-.63.97-.65.85-.31.45-.97 1.28-.07.1-.9 1.4-1.49 2.64-.59 1.05 3.72 1.51.87.19 2.46.59 1.04.24 1.18.3 1.08.33.15.05 1.22.45 1.26.52 1.16.52 3.95 1.77 1.4.58 1.29.47.53.16.5.14.77.19.63.11.3.03.39.04.94.02 1.53-.06.9-.06 2.45.01 1.72-.04 1.4.02.96-.02.72 0 .47-.03.42-.07.52-.12z" /><path d="m580.36 353.08l.51-13.19.47-12.15.34-9.3.38-9.96-.07-.16-.05-.33 0-.42.02-.36.04-.36.06-.29.09-.21.19-.31.07-.31.71-2.61.8-2.92.29-1.09-.24-.01-.38-.03-.5-.08-1.09-.2-.61-.15-.91-.27-1.73-.43-.29-.07-2.04-.49-.45-.11-.52-.12-.59-.11-.61-.12-.69-.11-.6-.12-.64-.12-.45-.13-.4-.11-.28-.06-.19-.04-.44-.04-.52-.04-.52.02-.76.04-1.15.07-.68.05-.16.02-.26.01-1.51.08-.24.02-.89.05-.99.04-.58.01-.95-.03-1-.07-.73-.07-.69-.04-1.12-.02-.5-.03-.52-.04-.34-.06-.26-.05-.7-.18-.35-.1-.38-.11-.22-.06-.8-.21-.46-.11-1.15-.29-1.01-.28-.32-.08-.84-.21-.51-.07-1.16-.22-1.25-.44-.67-.31-.87-.45-.52-.35-.6-.47-.5-.52-.17-.17-.2-.18-.32-.26-.34-.2-.33-.15-.31-.13-1.57-.6-1.26-.49-.05-.02-.42-.16-.99-.36-.82-.19.01.25.01 1.33.02.79.04 1.57.04 1.59.03 1.59.06.82 0 .44-.07.57-.09.95-.1 1.09-.04.42-.02.26-.08.93-.1 1.31-.05.63-.32 2.2-.24 1.66-.06.72-.06.58-.04.48-.02.53-.01.47.01.65.05.52.08.46.1.41.23.54.18.39.67 1.35.14.25.06.13.35.67 1.19-.59.6-.29.32-.19 1.28-.6 1.92-.93 1.18-.61.44 1.55.62 1.72 2.45 7.56 3.48 6.55 5.3 9.96 4.62 8.68 19.08 4.94z" /><path d="m508.26 261.12l1.13-2.09 1.33-2.52 1.37-2.63.95-1.6.03-.05.9-1.6 1.04-1.77.6-.96-.44-.27-.43-.27.03-.38.08-.55.04-.56.02-.74-.04-.88-.07-.72-.17-1-.2-.83-.22-.68-.28-.78-.38-.77-.45-.83-.44-.65-.36-.5-.85-1.03-.34-.36-1.85-2.04-.46-.51-1.73-1.9-.79-.88-1.4-1.51-.54-.59-1.61-1.81-.9-1-1.26-1.38-.75-.86-.91-1.02-.45-.55-.07-.09-.61-.69-1.04 1.12-2.48 2.69-1.15 1.27-.42.43-1.08 1.14-.87.93-3.55 3.79-1.5 1.63-1.87 2.01-1.46 1.55-1.73 1.87-.73.79-1.62 1.73-1.88 1.99-1.86 1.99-.45.49-1.32 1.44-.61.63 2.73 1.2 2.13.85 2.31 1 1.67.89.66.38 1.53.92.57.34 1.38.81 1.32.78.11.07.3-.62.31-.61 1.41-2.31.78-1.26.91.46 1.46.79 1 .52.78.42 1.04.55 1.54.78 1.63.86 1.34.72 1.01.55.76.4.92.49 1.46.76.65.36 1.14.61 1.64.87 1.61.78z" /><path d="m478.51 303.52l.57 1.47.28.79.51.07.53.09.28-.85.37-1.01.44-.96.56-1.12 1.01-1.82.14-.26 1.1-2.09 1.13-2.06 1.13-2.07.4-.67.37-.57.31-.4.34-.42 1.11-1.22.8-.85 1.76-1.82.7-.8.83-1.21.75-1.2.25-.41.24-.47.61-.63.57-.9-.39-.18-.8-.41-.92-.44-1.14-.6-1.4-.77-1.26-.75-1.46-.89-1.74-1.03-1.3-.74-1.17-.73-1.23-.74-1.03-.58-1.72-1.05-1.26-.75-1.28-.72-.99-.64-1.9-1.13-1.86-1.11-2.61-1.53-3.75-2.26-.65-.39-3.06-1.85-2.35-1.42-.94.97-.26.27-.56.59-2.06 2.24-2.35 2.47-1.08 1.14-.82.88-.99 1.07-.96 1.01-.64.7-.67.69-.5.53-.7.74-.92.98-.81.86-.85.9-.8.83-1.08 1.14-1.71 1.85-1.01 1.07 1.05.47 1.95.86.71.32 1.32.62.58.31 1.16.52 1.49.58.93.33.74.23 1.33.35 1.03.24.19.05 1.07.24 1.33.37.79.22.33.1 1.49.65 2.23 1.04.74.33 1.44.68.62.36.32.22 1.22.84.97.72.08.05.4.25.68.41.93.54 1.58.93 1.29.77 1.74 1.06 1.11.67 1.58.91.72.45.52.36.71.76-.02.2.07.13.26.37.31.55.32.75.4.98.18.38z" /><path d="m496.44 356.45l.34-.02.27-.06.23-.02.19-.05.27-.27.4-.5.41-.57.15-.28.26-.19.65-.58.93-.78.98-.75.18-.14.39-.24.51-.28.47-.18.47-.18.58-.21.63-.19 1.06-.32.47-.08.39-.04.43-.03.36-.04.47-.03.72-.05.23-.02.14.02.15.05.12.08.34.32.3.29.34.36.33-.23.18-.13.18-.23.21-.39.56-1.28.41-.87.11-.28.05-.4 0-.17-.04-.2-.25-1.36-.05-.16.21-.16.65-.59.59-.56 1.08-.86.44-.36.15-.1.16-.04.21.02 2.13.46.6.1 1.01.17.6.11.39.06.13-1.05.1-.84.11-.81.24-1.65.19-1.56.18-1.6.09-.9.02-.71 0-1.66 0-.65-.03-1-.01-.89.03-.74.07-.45.09-.62.05-.55.14-1.42.05-.71.09-.8.08-.77.1-.79.02-.32.02-.37.03-.63-.02-.65-.04-.45-.05-.52-.07-.47-.14-.92-.09-.82-.11-.76-.19-1.46-.08-.63-.07-.85-.1-1.25-.03-.74-.06-1.42-.04-1.16-.02-.24-.02-.42-1.24.12-.8.04-.26 0-.27-.03-.29-.09-.33-.13-1.1-.41-.56-.21-.21-.09-.22-.05-.18-.05-.4-.03-.5.01-.89.03-.9.03-.33 0-2.79.1-.63.01-1.66.06-1.12.03-.45.05-.45-.01-.81-.09-.93-.15-.28-.1-.42-.2-.46-.14-.27.05-.62.21-.2.07-.81.3-.61.29-.77.52-.55.36-.23.13-.17.04-.43.01-.83-.11-1.51-.22.56-.23.3-.2.07-1.52.21-1.47.16-.73.24-.7.41-.93.23-.54.1-.19.3-.75.07-.31-.48.26-.97.37-1.15.41-1.25.39-.99.33-1.35.53-.39.18-1.05.49-.75.33-.76.33-.49.18-.46.11-.47.08-.62.07-.97 0-.92-.06-.47-.07-2.88-.36-1.19-.18-.24.92-.19.92-.2 1.21-.08.74-.01.43-.02 1.75.04.56.17 1.53.16.85.1.44-.43.8-.25.42-.72 1.2-.38.61-.49.78-.61.9-.36.53-.47.63-.3.42-.41.52-.3.34-.48.53-.51.55-.43.45-.34.35-.5.48-.59.55-.7.59-.46.4-.69.53-.88.67-.54.38-.71.47-.96.61-.73.42-.53.29-1.44.73-.74.34.43.35.14.11.7.46.55.31.37.17.52.18.44.13.11.03.56.13.58.13 1.08.2.31.07.28.08.45.17.5.22.4.2.77.46.37.23.82.5.41.22.55.2 1.13.33 1.01.24-.09.38-.08.69-.08 1.24-.03.42-.03.47-.07.64-.08.89.46.1 1.07.25.79.18.6-.18.52-.06.23-.02.35.38.73 1.49.38.77.04.05.05.03.05.02.06.02.07.01.16.11 0 0-.35.49-.35.52-.25.35-.58.93-.07.16-.05.12-.31 1.11-.34 1.53-.22.81-.16.68.17.02.78.14 1.3.23.61.13.71.15.53.11.26.05 1.12-.02.7.1.29 0 .5.05 1.67.17 2.16.22 1.63.17.53-.09 2.33-.36.62 1.5.63 1.5.46.94.12.4.24.56z" /><path d="m212.63 359.16l.31-.22.03.3.26.13 4.46 1.39 1.3-2.71 1.93-4.08 1.79-2.16 1.46-1.16 2.06-2.15-1.27-1.32 1.58-1.4 1.93-1.7.78-.74.36-.59.62-.72 1.47-1.36.26.01-.29-.32.15-.13-1.83-1.95-1.81-1.96.36-.03.59-.17 1.1.65 1.13-1.04.72-.67.85-.91.8-.96 1.72-2.05.27.19.45-.67.61-.95.16.18.99-1.89 1.55 1.86.69.79.2.21.53.52.6.49 2.18-2.05 1.7-1.73 1.26 1.28.68-.7 1.68-1.67.81-.81.42-.4.75-.45.81-.22 1.38-.14.76-.02 1.11-.31 1.14-.56.51-.49.54-.47.52-.79.28-.4.49-.47 1.23-.11.5.02 2.35.02.8.06 1.07.06 1.03.09.45.39.6.09.61.08.98-.05 1.08.21-.1.41.63.1 2.44.39.75.42 1.89 1.06 1.31.6 1.51.7 1.69.4 1.15.3 2.07-.09 1.03-.06 2.18-.35.76-.12 2.47-.92.4-.16 2.84-.96 2.94-.72 3.07-.87 2.61-.73.6-.15 2.41-.54 2.87-.45.34-.59.17-.4.5-1.16.82-1.9.6-1.9.39-1.14.73-2.01.84-4.19 3.3-.84 3.91-.4 3.54-1.27.19-.76.57-2.39.25-1.04.35-1.39.34-1.32.31-1.12.1-.35-1.1-2.09-.48-.9-.47-1.5-.7-2.28 1.1-2.54 1.02-2.43.39-.94-1.81-1.48-.38-.32-1.19-.97-.04-.93-.25-.11-.97-.4-1.41-.55-.65-.19-1.76-.5-1.81-.54-1.8-.51-1.8 1.05-1.67.98-1.41.45-.52.18-.81.26-1.47-.44-1.23-.37-1.18-.44-1.75-.6-.63.19-1.53.44-2.07.48-2.12.51-1.04.22-1.08.26-2.52 1.83-1.41.57-1.52.89-.33.14-.35.14-1.24.52-2.32.95-1.73.72-1.85.68-1.09.4-1.8 1.36-.65.69-1.98 2.1-1.49-.77-2.27-1.16-1.34-.55-1.44-.58-2.16-1.21-.8-.44-2.02-.31-.73-.13-1.25-.24-1.97-.84-1.75-.16-2.27-.79-1.27-1.1-1.2-.5-1.45-.05-.27.96-.58 1.08-.27 1.13-.08.38-.3.78-1.05.63-.87.7-.45.01-.68.04-1.41.06-1.24.13-.44-.14-2.68-.85-.05-.13-.36-.96-.19-.51-.06-1.09-.07-.88-.13-2.48-.33-1.36-.22-.87-.14-.55-.11-.35-.53-1.55-.01-.03-.19-.53-.24-.39-.24-.39-1.14-1.08-.85-.52-1.35-.84-1.55-1.19-1.41-1.06-.53.72-.62 1.07-.15.12-1.31-.25-.36-.08-.67 0-2.14-.07.17 1.12.42 1.05.35.78-.42-.04-1.68-.18-1.94-.23-.12 1.47-.09.99-.06.62-.02.48-1.34-.25-.76-.15-.8.91-.58.66-.55-.39-1.01-.75-.46-.35-.1.2-1.05-.9-.73-.63-2.33-2.05-.36.25-.18.2-.45.41.42.46.24.42.17.35.07.28.19 1.54.01 1.07-.04.6-.16.05-.49.38-.61.47-.82.6-.53.36-.86.58-.19.02-.16-.13-.63-.77-.3-.38-.4-.46-.22-.26-1.5-1.85-.24-.29-1.03-1.26-.37-.48-1.2-1.47-1.03-1.24-.85.27-.35.17-1.63.85-3.73 1.91-.22.01-2.41-1.4-.2-.25-.6-1.14-.43-.77-.72.58-.35.47-.53.87-.58 1.57-.35 1.5-.1.39-3.32-.24-1.06-.1-.8.1-.89.17-.44.11-.57.24-.71.35-1.43.85-.2.15-.59-.95-.21-.44-.56-1.41-.17-.13-.62-.04-.25.1-.58.64-1.9 2.08-.66-.45-.22-.13-.44-.42-2.92-1.83-2.65-1.66-1.24 1.09-1.96 1.7-1.92-2.16 0-.2-2.06 1.78-1.33 1.11-.75.66-1.08-1.06-1.77 1.48-2.12-1.6-.35.44-.64-.39-1.08-.51-1.03-.66-.15-.33-1.43-.67-.52 1.13-.31.36-.4.51-.44.54-.41.4-.35.33-.36.32-.26.19-.33.22-.14.1-.46.3-.48.31-.31.35-.31.4-.19.2-.13.14-.31.23-.66.39-.63.46-.51.41-1.26 1.13-.73.78-.85-.68-.75.59-.79.74-.26.22.12.08-.2.23-.29.48 1.37.94-.7 1.19.1.13.36.31.68.63.45-.07.78.48.23.19-.78 1.08-.46.65-1.13 1.81-.43.02-.45 1.8-.23.72.12.09-.33 1.1-.19.84-.22.82-.67 1.98-.21.6.9.34.26.09-.11.41.58.2 1.66.68.89.36.01.72-.28 2.04-.08.81.04.33 1.78-.05.3.71 1.54-.47.65-.22.5-.14 1.01-.2.98-.12 1.15.14.05-.44.39.01.67-.01.5-.04 1.33-.26.99-.28.94-.19 2.11-.35.83-.14.13.22 1.01 1.93.58 1.07.78 1.47 1.16 2.1 1.53-.73.84 1.64.71-.83.59-.77 1.1-1.61.47-.65 1.35-2.24.51-.87.82.51-.69 1.27 1.3 1.36-.22.26.44.45 1.52 1.63.47.41.68.46.23 0 .36-.46.33-.85 1.42.61 1.82.85 2.21 1.04.09-.14 4.32 2.58.68.4 1.69 1.07.39.28 1.78 1.29.8-.79.25.18.99.7.31-.64.97.57.69.27.91.26 2.09.67 2.17.98-.67.89.11.08.12.09-.49.69.39.6.8 1.36.78 1.06 1.26.57 1.35.58-.77 1.07-.1.15 2.5.95 1.18.46-.01 1-.82 1.81-.35 1.09-.1.56-.13.69-.09.92-.11 1.27.03.36.03.47.55.02 1.83.5 1.55.42-.57.66 1.24.57 2.37 1.09.97.46-.43.67-.22.52-.56 1.31-.13.34-.61 1.6-.35.94-.31.72-.18.41-.65 1.24-.53 1 .6.33.92.3 1.13.38-.47 1.09-.44 1.04 1.35.33.67.08.83.08 1.42.1.96.07 1.87.16.52.04 2.32.21.06 1.26.09 1.71z" /><path d="m449.79 248.57l-.26-.34-.34-.5-.02-.02-1.11-1.64-.48-.61-.03-.04-.12-.15-1.2-1.01-1.16-.98-.61-.36-.27-.11-.35-.05-.46.05-.41.12-1.02.5-.95.47-.75-.41-1.09-1.21-.61-.69-1.55-1.02-1.12-.66-.96-.56.34-.54.07-.2-.04-.1-.1-.09-.07-.17-.1-.37-.08-.07-.18-.04-.1-.04-.12-.1-.08-.17-.01-.69-.05-.06-.08-.04-.07-.06-.06-.24-.04-.32-.07-.14-.2-.13-.15-.34.61-.6 1.3-1.23 1.31-1.25.45-.44.41-.39-.29-.27.82-.89.6-.95.01 0 .45-.48.37-.38.46-.49.72-.75.67-.71.69-.74.92-.94 1.14-1.17.37-.36 1.69-1.8 1.77-1.87.22-.04.33-.51.29-.34.14-.26.11-.31-.03-.1-.2-.2-1-.94-.18-.06-.55-.14-.21-.05-.37-.12-.26-.15-.63-.49-1.02-.88-.8-.69-.15-.2-.2-.32-.2-.47-.24-.49-.22-.3-.84-.84-.96-.77.54-.64.72-.82 1.02-1.08 1.23-1.36.35-.32.21-.14-4.06-3.01.55-.55.2-.22-.77-.71-.79-.84-.38-.51-.29-.41-.1-.22-.03-.17 0-.11.03-.12-.71.12-.17.12-.54.38-.46.31-.2-.25-.17-.23-.14-.23-.06-.12-.06-.13-.06-.22-.07-.24-.11-.3-.07-.2-.14-.3-.2-.26-.32-.41-.25-.24-.17-.13-.34-.27-.61-.38-1.04 1.68-.84 1.44-.66 1.2-.26.51-1.02 2.03-1.59 3.24-.79 1.62-.79 1.52-.54 1.05-.26.42-.12.2-.96 1.6-1.25 1.85-1.42 1.9-1.06 1.29-.6.73-.77.92-.92 1.07-.65.73-.61.71.02.06.45 1.11.63 1.48.38.82.31.6.4.95.8 1.7.42.9 1.13 2.57 1.13 2.58.88 2.05.25.53.97 1.88.39.65.81 1.02.73.73.87.73 1.56 1.03 1.9 1.11 3.31 1.97 3.94 2.32 1.87 1.11 1.18-.27 1-.23 1.78-.41 2.18-.54 1.84-.44z" /><path d="m604.12 323.6l.29-.02-.53-.33.34-1.39.11-.83.29-3.93 1.27-2.54.53-1.07.19-.46.72.15-.01-.11.06-.18 1.56.38 1.48.36.39.09 1.64.41 1.61.46.7.21.95.35 1.96.68 1.66.6 1.43.47 1.18.4 1.73.58 1.15.42 1.73.62.7.24 2.5.87.81.28-.13-.64-.13-.6-.05-.77.04-.93.09-.6.07-.41.21-.9.27-1.05.12-.39.14-.6.15-.35.1-.15.11-.14.09-.21.13-.41.08-.3.05-.35.1.07.18.11.82.37.49-1.24.23-.58.25-.61.17-.43.07-.18.31-.61.25-.52.28-.61.45-.95.09-.18.36-.8.35-.72.25-.56.25-.55.23-.45.16-.33.17.01.55-.01.48-.08.62-.14.31-.11.05-.64-.5-.39-1.83-1.49-1.85-1.51-1.85-1.52-1.89-1.53-1.86-1.51-.59-.48 1.88-.76.61-.25.74-.29.41-.16.16-.07.73-.02 1.13-.08.82-.05 1.06-.02 1.25-.05.79-.28 2.02-.71 1.75-.92.33-.16 1.72-.23.37-.05 1.63-.22 1.96-.3 2.04-.39.61-.11 1.45-1.27 1.26-1.12.32-.27 1.58-1.42 1.99-1.32.3-.22.73-1.21.36-.62.42-.75.77-1.41.23-.45.84-.97.5-.56.8-.86.67-.76.2-.69.31-1.32.09-.38-.36-1.04-.53-1.43-.36-.97-.78-.45-1.51-.84-.49-.26-2.02-1.06-.01-.12-.11-1.36-.12-1.41-.07-.8.25-.62.38-.95 0-.47.04-1.39.04-1.41-.01-.6.09-.8.16-1.43.61-1.41.61-1.41.08-.18-.53-1.24-.62-1.32-.16-.38-.31-1.06-.44-1.4-.42-1.4-.44-1.43-.17-.55.02-.86.07-1.35.03-.82-1.87-.58-.94-1.43-.91-1.41-.7-1.11-.15-.32-.56-1.41-.15-.38-.92-1.04-.34-.39-.46-1.04-.44-1.36-.45-1.41-.07-.23-.12-1.18-.11-1.11.08-.29.1-.52.39-.89.33-.76.54-1.25-.99.93-.59.55-.45.38-5.29 4.85-4.5 4.12-7.91 7.32-5.71 5.01-8.36 3.47-5.49 2.02-11.18 3.95-3.83 1.04.24 3.76.36 4.54.58 7.18.3 5.39.09 1.66.35 6.45.04.46-.28.07-.25.09-.36.14-.69.36-.61.5-.63.57-.54.39-.56.36-.3.18-.6.26-.77.28-.72.17-.9.15-.29.04-.97.1-.84.01-1.1-.02-.88-.04-.54-.06-.6-.07-.04.41.02.19-.02.22-.02.3 0 .61.07.46.13.55.05.36 0 .51-.09.55-.15.83-.2.75-.27.88-.33 1.04-.52 1.52-.27 1.04.38.03.24.01-.29 1.09-.8 2.92-.71 2.61-.07.31-.19.31-.09.21-.06.29-.04.36-.02.36 0 .42.05.33.07.16-.38 9.96-.34 9.3-.47 12.15-.51 13.19 6.23-7.45 6.37-7.61 4.66-5.59 5.75-6.89.75-1.94z" /><path d="m558.28 249.51l1.09.87 1.03.87.44-.85.48-.68.42-.48.53-.49.46-.38.45-.36.68-.3.48-.17.16-.06.51-.18.76-.08.59.03.76.17.12.04.01 0 .93.27.78.23 1.47.61 1.57.75.78.38.66.41.74.53 1.29 1.31.17.09.24.01.75.14 7.45 1.47.06.02 7.23 1.37 4.33.88 3.83-1.04 11.18-3.95 5.49-2.02 8.36-3.47 5.71-5.01 7.91-7.32 4.5-4.12 5.29-4.85.45-.38.59-.55.99-.93-.99-.09-6.72-.35-5.79-.29-3.14-.16-4-.25-4.06-.21-2.22.23-1.54.16-2.18-.18-2.26-.19-3.64-1.8-3.22-1.85-1.07-1.53-1.49-.65-1.79-.51-1.94-1.25-3.32-1.05-2.08-.64-1.06-.35-1.92-1.37-2.56-1.38-3.08-1.5-.7-.72-.29.15-.51.47-.54.47-.02.19.07.1.02.12.16.12-.47.54-.56.84-.28.58-.03.49.04.64.12.84-.08.53-.31.72-.29.51-.2.41-.17.56-.45.94-.43.93-.23.35-.65.88-.56.82-.94 1.36-.2.39-.23.66-.15.39-.19.35-.28.2-.47.22-.5.29-.61.49-.41.39-.48.52-.34.38-.9.7-.42.37-.71.68-.63.69-.5.7-.45.71-.5.78-.59.93-.53.83-.33.39-.23.21-.28-.11-.32-.12-.52-.37-.4-.33-.35-.16-.31-.04-.47.03-.76.08-1.32.17-.58.11-.48.1-.55.12-.43.13-.32.21-.39.3-.2.15-.15.1-.48.18-.59.19-1.04.34-.22.09-.25.11-.12.04-.2-.01-.36-.07-.61-.19-.53-.18-.36-.05-.38-.02-.73.06-.76.02-.8.02-.78.03-.6-.02-.53-.08-.44-.11-.77-.34-.85-.46-.49-.24-.41-.17-.77-.27-1.21-.4-1-.34-.54-.14-.45-.02-.41.02-.6.07-.57.07-.49.12-.85.22-.72.18-.61-.06-1.33-.16-1.82-.22-1.39-.02-.07-.38-.1-.58-.15-.85-1.27.09-1.16.06-1.36.12-.96.09-1.25.1-1.68.13-.34.04-.49.03-.65.05-.32-.02-.23-.08-.2-.13-.39-.24-.3.44-.69 1.05-.85 1.32-.89 1.36-.46.69-.64 1.01-.63.95-1.17 1.74.4.26 1.35.84.53.25.19.13.34.14 1.55.57 2.67.92.71.28.84.42 1.36.69.39.2.62.34.65.33 1.42.59 2.06.83 2.12.37 2.45.45.88.14 2.41.19 3.82.31-.11 1.66-.03.57-.04.17-.08.16.8.1.88.22.95.25 1.02.38.39.22.73.47.64.48.68.65.72.7.49-.66.64-.85z" /><path d="m576.42 297.38l2.04.49.29.07 1.73.43.91.27.61.15 1.09.2.5.08.27-1.04.52-1.52.33-1.04.27-.88.2-.75.15-.83.09-.55 0-.51-.05-.36-.13-.55-.07-.46 0-.61.02-.3.02-.22-.02-.19.04-.41.6.07.54.06.88.04 1.1.02.84-.01.97-.1.29-.04.9-.15.72-.17.77-.28.6-.26.3-.18.56-.36.54-.39.63-.57.61-.5.69-.36.36-.14.25-.09.28-.07-.04-.46-.35-6.45-.09-1.66-.3-5.39-.58-7.18-.36-4.54-.24-3.76-.91.96-.62.65-.43.41-.76.35-.77.44-.79.35-.26.09-.55 0-.65-.12-.35-.12-.09.32-.2.15-.41.17-.64.09-.36.24-.73.79-.76.96-.44.76-.05.41.08.26.15.21.29.35.21.29.14.24.06.2-.03.35-.17.24-.35.29-.35.17-.53.47-1.79 1.73-1.63 1.64-.65.32-.73.23-.44.09-.41 0-.52-.12-.88-.41-1.08-.58-.5-.29-.26-.3-.14-.24-.87.13-2.47.62-1.1.29-1.02.33-.3.27-.02.29.05.67.17.87.09.6-.04.27-.13.42-.23.29-.46.38-.98.48-.91.22-1.37.36-.27.18-.2.27-.15.71-.16.98-.13.31-.2.27-.22.2-.32.13-.33.02-.54-.11-.88-.24-.34-.11-.29-.16-.42-.43-.44-.46-.29-.2-.31-.07-.25.04-.27.18-.4.36-.3.29-.38.24-.62.2-.66.16-.58.15-.47.2-.69.5-.34.22-.26.11-.49-.05-.65-.18-.53-.08-.96-.02-.69-.03-.99.02-.37.12-.6.33-.31.16-.4.13-.78.16-.83.13-.55.11-.4.02-.35-.04-1.85 1.79-1.74 1.86-.7.06-.45.06-.66.09-.61.09-.32 0-.47 0-.56-.05-.61-.11-.17.67-.98-.43-.31-.17-.3-.17 0 .07.08 1.12.01.89.09 1.13.06.91.11.69 0 .27 0 .24.1.78.99.36.42.16.05.02 1.26.49 1.57.6.31.13.33.15.34.2.32.26.2.18.17.17.5.52.6.47.52.35.87.45.67.31 1.25.44 1.16.22.51.07.84.21.32.08 1.01.28 1.15.29.46.11.8.21.22.06.38.11.35.1.7.18.26.05.34.06.52.04.5.03 1.12.02.69.04.73.07 1 .07.95.03.58-.01.99-.04.89-.05.24-.02 1.51-.08.26-.01.16-.02.68-.05 1.15-.07.76-.04.52-.02.52.04.44.04.19.04.28.06.4.11.45.13.64.12.6.12.69.11.61.12.59.11.52.12.45.11z" /><path d="m451.65 339.9l-.13-.2-.13-.07-.15-.04-.31-.08-.27-.07-.2-.08-.24-.1-.31-.18-.25-.19-.32-.23-.32-.17-.31-.14-.24-.1-.28-.15-.28-.2-.16-.14-.34-.19-.32-.13-.32-.1-.15-.08.09-.79.16-1.02.18-.81-1.37.22-1.3.21-1 .17-.36.06-1.86.32-.85.14-2.19.36-2.13.35 0 .01-1.41.21-.86.13-1.68.28-1.39.22-.78.13-2.92.49-2.94.49-2.93.49-1.47.24-1.43.24-1.6.26-1.52.26-1.55.24-3.4.54-1.44.23-1.78.27-.93.16-1.83.3-1.16.19-1.09.18-1.3.21-1.37.24-1.88.29-2.79.45-1.32.21-1 .16-.92.16-1.52.28-1.66.29-.94.18-1.65.33-.66.13-.5.12-1.07.27-.97.27-.72.21-.45.16-.59.2-.71.26-.71.26-.76.31-.64.27-.98.43-.66.32-.97.47-.61.33-.69.39-.4.24-.44.27-.54.34-.67.45-.56.39-.19-.3-.14-.22-.77.63-1.37 1.19-.85.8-1.17 1.21-1.5 1.7-1.06 1.26.27 0 .8-.04.51-.02.18-.18 1.57 1.38.33-.35 1.34 1.02.22-.26.82.74.22-.16.2-.2.43-.39.24.21.06.14.01.13 1.27 1.3.13-.21.3-.5 1.24 1.19.3-.33.31-.31 1.21 1.23.33-.17.3-.14.21-.11.51.13.85.58.2.04.52.02.25.06-.03.12.44.17.67.23.52.16.55.2 1.13 0 .92.01 2.28 0 3.84 1.88.92.83.93.85 1.39 1.33 1.47 1.35.65.6 2.44 2.26.23.24 2.52 1.23.49.25 1.39.69 1.84.62 2.31.8.7.69.78.73 1.16 1.16.95.36.67.25.21.08 2.24 1.06 1.08-.16.55-.11 1.65-.29 2.13-.33 2.01-.37 1.98-.6.64-.95.88-1.21 1.69-1.22.34-.25 2.43-.49.99-.2 1.36-.73 1.57-.93.81-.49 1.38-.86 2.09-1.19 2.48-2.08 1.54.06 1.56.08 2.15.08 2.93.11.81-.8 2.37-2.4.92-2.74.84-2.55.1-.26 1.08-.34 2.2-.68.63-.8.41-.52 1.8-2.26 1.84-1.53 1.35-1.15-.27-.21.52-.49.74-.67.33-.35.1.04.19.18.22.04.21-.02.32-.06.22.08.28.12.45.21.3.18.37.17.2.09.13 0 .64.07.41.15.2.41.98.38.28-1.97-.88-.68-.66-.5-.66-.47-.12-.08-.71-.49-.23-.1-.31-.14-.39-.12-.46-.13-.28-.05-.33-.05-.21-.04-.18-.07-.2-.17-.17-.14-.17-.09-.16-.03-.21.04-.17-.07-.12-.11-.13-.06-.09-.01-.1-.01-.23-.04-.16-.07-.15-.12-.14-.16-.17-.18-.12-.08-.14-.05-.18-.09-.12-.08-.13-.12-.17-.15-.12-.03-.13.03-.15.04-.17-.05-.18-.17-.17-.08-.34-.05-.24-.05-.17-.1-.12-.13-.09-.18-.14-.13-.17-.06-.19 0-.2 0-.17 0-.03 0-.12-.05-.14-.13-.13-.05-.16 0-.28 0-.21-.03-.21-.12-.3-.26-.28-.29-.15-.17-.02-.14.01-.14-.02-.11-.15-.15-.3-.12-.13-.08-.16-.13-.24-.08-.25-.13-.51-.35-.32-.19-.18-.15-.21-.31-.28-.51-.31-.6-.2-.47z" /><path d="m537.47 282.87l.3.17.31.17.98.43.17-.67.61.11.56.05.47 0 .32 0 .61-.09.66-.09.45-.06.7-.06 1.74-1.86 1.85-1.79.25-.23.22-.26.08-.22-.01-.23-.18-.32-.29-.38-.41-.41-.43-.29-.43-.18.16-.41.06-.15.26-.66.24-.33.42-.46.38-.49.25-.6.33-.69.34-.73.28-.6.25-.57.22-.74.18-.75.19-.68.09-.23-.63-.35-1.14-.65-.79-.45-.49-.29-.48.98-.06-.19-.22-.31-.23-.21-.23-.15-.67-.29-1.1-.48-.8-.37-.88-.39-.17-.07-.73-.33-.46-.21-1.23-.56-1.4-.62-.8-.42-1.13-.48-.47-.25-.22-.09-.48-.1-.63-.13-1.4-.18-1.99-.39-2.78-.51-1.43-.31-2.26-.47-.28-.06-.09.31-.18.58-.2.54-.23.54-.29.55-.49.78-.23.34-.18.21-.35.42-.66.75-.58.7-.42.51-.29.38-.23.33-.32.6-.4.79-.24.42-.49 1.14-.34.88-.18.59-.28 1.01-.43 1.67-.08.38-.39 1.93-.18 1.07 0 .12.13.05.08.08.37.32 1.81 1.47.32.23.63.47.47.31 1.08.41 1.74.64 1.04.34.62.43.62.42.19.09.31.09.66.15.81.18.57.1.29.05 1.07.03 1.68.02 1.65.03 1.37.04.71.02.59.08.28.05.2.06.47.24.83.45.46.23.19.09-.01-.89-.08-1.12 0-.07z" /><path d="m515.17 247.63l.44.27.75-1.13.9-1.31.94-1.25 1.1-1.37 1.03-1.29 1.08-1.34.91-1.23.95-1.39.57-.85 1.17-1.74.63-.95.64-1.01.46-.69.89-1.36.85-1.32.69-1.05.3-.44-.46-.37-.81-.71-1.36-1.15-.87-.71-1.45-1.24-.43.39-.48.21-.58.17-.88-.55-1.65-1.72-2.47-2.72-.61-.66-1.89-2.07-2.01-2.21-2.42-2.65-.89-1.01-.66-.75-.76-.81-2.87 3.04-1.46 1.53-2.3 2.45-.77.82-1.81 1.93-1.8 1.88.61.69.07.09.45.55.91 1.02.75.86 1.26 1.38.9 1 1.61 1.81.54.59 1.4 1.51.79.88 1.73 1.9.46.51 1.85 2.04.34.36.85 1.03.36.5.44.65.45.83.38.77.28.78.22.68.2.83.17 1 .07.72.04.88-.02.74-.04.56-.08.55-.03.38.43.27z" /><path d="m463.61 213l-.05-.11-.01-.12.03-.17.05-.1.09-.09.18-.1.24-.07.24-.03.33-.11.43-.23.79-.46 1.11-.7 1.16-.79.81-.66 1.33-1.13.88-.8.46-.51.21-.23.35-.35.91-.8.76-.67 1.36-1.21.95-.87 1.5-1.34.75-.69.5-.47-.47-.53-2.42-2.71-1.87-2.12-.23-.26-.22-.25-1.6-1.77-.52-.58-1.24-1.41-.59-.65-2.7-2.94-.16-.17-2.55-2.91-.09-.1-.14-.15-1.48-1.63-1.87-2.1-.21-.24-.63-.72-1.63-1.87-1.1-1.17-1.87-2.11-.08-.09-.58-.65-1.62 2.19-1.11 1.47-1.08 1.44-.17.2-.55.7-.74.88-.49.58-.54.59-.49.55-.82.86-.49.53-1.73 1.79-.7.72-1.45 1.51-.87.88-1.3 1.37-.67.77-.54.63-.65.78-.88 1.07-.88 1.16-.42.56-.52.77-.71 1.02-.49.77.61.38.34.27.17.13.25.24.32.41.2.26.14.3.07.2.11.3.07.24.06.22.06.13.06.12.14.23.17.23.2.25.46-.31.54-.38.17-.12.71-.12-.03.12 0 .11.03.17.1.22.29.41.38.51.79.84.77.71-.2.22-.55.55 4.06 3.01 10.33 8.17.33.06.34-.16.26-.3.34-.5.32-.45.23-.11 1.75-.63.54-.19 1.17-.27.5-.01.79.21.95.48.46 0z" /><path d="m496.19 281.08l1.49-2.64.9-1.4.07-.1.97-1.28.31-.45.65-.85.63-.97.48-.7.55-.86 1.44-2.6.01-.01 1.75-2.83 1.78-3.34 1.04-1.93-1.61-.78-1.64-.87-1.14-.61-.65-.36-1.46-.76-.92-.49-.76-.4-1.01-.55-1.34-.72-1.63-.86-1.54-.78-1.04-.55-.78-.42-1-.52-1.46-.79-.91-.46-.78 1.26-1.41 2.31-.31.61-.3.62-.11-.07-1.32-.78-1.38-.81-.57-.34-1.53-.92-.66-.38-1.67-.89-2.31-1-2.13-.85-2.73-1.2-.24.25-1.43 1.52-.92.98-1.15 1.23-.52.54-.43.5-.02.03-1.42 1.48-.95 1-1.71 1.86-1.3 1.41-.83.88-.91.98 2.35 1.42 3.06 1.85.65.39 3.75 2.26 2.61 1.53 1.86 1.11 1.9 1.13.99.64 1.28.72 1.26.75 1.72 1.05 1.03.58 1.23.74 1.17.73 1.3.74 1.74 1.03 1.46.89 1.26.75 1.4.77 1.14.6.92.44.8.41.39.18.59-1.05z" /><path d="m508.79 209.62l.63-.67 2.47-2.61 1.26-1.35 1.74-1.87 1.33-1.41 1.64-1.75 3.07-3.25 2.99-3.19 3.08-3.25 2.9-3.14.91-.94.15-.16 1.68-1.81 1.53-1.52.67-.62.62-.66 1.94-2.07 1.92-2.03 1.2-1.31 1.4-1.62 1.1-1.22 1.09-1.19.04-.63.1-1.37.25-1.76.08-.54.22-1.01.32-1.1.32-.97.69-1.66 2.35-5.31 1.02-2.26 1.37-3.02.61-1.36.98-2.21.7-1.72.56-1.43.5-1.57.32-1.09.31-1.33.2-.89.2-1.36.14-1.21.09-1.02.05-.81.02-.77.04-1.35-.09-1.26-.24.09-.3.03-.18.01-.39.05-.38.02-.54-.19-.19-.12-.25-.12-1.27-.58-1.65-.57-.53-.53-2.2-1.64-.93-.65 0-.84-2-.77-1.97-.54-2.5.46-.02-.52-.18-2.88.02-1.98.13-3.14.07-2.06-.18-.79.54-.17-.09-.61.02-2.66-.04-2.87-.07-1-.25-.71-.04-.63-.26-.9.13-.55-.12-1.74.09-.94-.04-1.48-.63-2.52-.18-.34-.35 0-.45-2.73-.62-3.91-1.73-5.31-.75-2.32-1.25-3.94-.94-1.95-.37-.78-.46-.96-.63-1.34-2.37-1.09-2.84-1.3-.8-.37-2-.58-3.03-.79-1.71-2.01-.74-.84-1.33-1.66-1.79-2.09-1.18-.91-5.37-2.62-3.21-1.54-.66-.55-3.62-3.79-3.34-3.54-2.51-2.54-1.73 3.88-1.56 3.43-.26.58-.1.23-.19.44-.7 1.58-.4.93-1.5 3.3-.32.69-1.43 3.19 0 .01-.02.03-.18.4.07.41.64 3.06.2.94.54 2.56.24 1.47.17.82.58 2.81.53 2.89.15.57.46 2.34.05.22.6 2.74 1.2 3.08-.13 1.51.67 1.76-.12.19-1.53 2.35-.5 1.68-.8 2.48.96 1.46.62 2.11.57 2.07.08 3.09.05.66.07 2.37-.57 1.68-.31 1.02-.76 2.38-.4.68-.93 1.47-1.66 2.59-1.31 1.67-.34.6-.5 1.74-1.78 1.09-4.22.31-1.76-.12-.69-.06-.74.35-3.47 1.59-.76-.04-2.22-.03-1.88-.11-.7-.04-.32-.03-2.4-.15-.64.27-1.55.71-2.64 1.13-.52.26-3.68 1.83-2.75 1.39-.37.19-1.12.06-.55.02-.01 0-2.73.14-.97.3-1.58.48-2.61.88-1.2.67-2.75.75-.98.3-1.95-.43-.42-.12-.9-.27-.97-.26-3.18-1.82-3.89-1.46-.66-.25-.79-.3-1.21-.47-.72.35-1.91.91 1.13 1.17 2.63 2.98 2.66 2.96 2.55 2.87 2.35 2.62 2.61 2.89 3 3.26 2.57 2.88.05.06.93 1.04 1.71 1.92 2.57 2.89 2.62 2.92 2.5 2.82.95 1.06 1.46 1.62.86.96.19.22.54.61.58.65.08.09 1.87 2.11 1.1 1.17 1.63 1.87.63.72.21.24 1.87 2.1 1.48 1.63.14.15.09.1 2.55 2.91.16.17 2.7 2.94.59.65 1.24 1.41.52.58 1.6 1.77.22.25.23.26 1.87 2.12 2.42 2.71.47.53.26.28 1.33 1.49.25.28.26.29 1.98 2.21 1.63 1.78.4.44 1.03 1.17 1.17 1.35.22.25.61.68.78.88.66.73 2.26 2.56 1.44 1.64 3.16 3.54 1.37 1.51 1.8-1.88 1.81-1.93.77-.82 2.3-2.45 1.46-1.53 2.87-3.04z" /><path d="m462.17 328.91l1.1 1.05.91.82.74-.34 1.44-.73.53-.29.73-.42.96-.61.71-.47.54-.38.88-.67.69-.53.46-.4.7-.59.59-.55.5-.48.34-.35.43-.45.51-.55.48-.53.3-.34.41-.52.3-.42.47-.63.36-.53.61-.9.49-.78.38-.61.72-1.2.25-.42.43-.8-.1-.44-.16-.85-.17-1.53-.04-.56.02-1.75.01-.43.08-.74.2-1.21.19-.92.24-.92-.53-.09-.51-.07-.24-.03-.37-.02-.69-.01-1.33.06-1.71.05-.33.04-.63.04-.93.07-.49.03-.55.05-.82.08-.66.08-1.03.11-1.04.12-1.41.2-1.62.27-1.5.27-1.07.21-.41.08-.55.09-.58.11-.5.12-.51.12-.87.27-.58.21-.4.17-.4.17-.52.22-.26.1-.52.23-.78.3-.65.19-.8.2.23.83.23.7.12.51.14.65.09.79.1.77.12.73.18 1.55.16 1.1.12.67.21 1 .18.64.11.37.21.6.42 1.04.77 1.56.76 1.2.58.95.78 1.03.81.97.64.71.6.56z" /><path d="m428.17 295.63l.06-.05.6-.65 1.19-1.25.49-.5.09-.09 1.23-1.31.54-.59.63-.69.5-.54 1.17-1.23.81-.84.06-.06.97-1.04 1.04-1.16.72-.79.68-.7.62-.67 1.05-1.12-.57-.26-.86-.39-.69-.32-1.03-.47-1.05-.44-1.19-.45-.89-.32-1.01-.34-1.23-.37-1.16-.29-1.71-.44-1.2-.34-.4-.12-.58-.17-1.44-.43-.34-.11-1.28-.45-1.13-.44-1.65-.71-2.6-1.19-.7-.31-1.13-.51-.86-.39-.11-.05-.66-.29-.51-.21-.65-.22-.71-.24-.71-.22-1.12-.32-.78-.22-.36.5-.12.18-.2.35-.21.37-.82 1.48-.79 1.46-.59 1.05-.24.43-.75 1.46-.74 1.46-.15.24-.24.23-.26.2-.06.12-.18.7-.34 1.37-.21.8-.41-.17-.31 1.23-.45 1.85-.43 1.86-.38 1.85-.28 1.24-.31 1.45-.18.86-.33 1.82-.36 1.86-.29 1.87-.33 1.85-.21 1.23-.29 1.56.75.02 1.47.03 1.15.05.95.07 1.61.12.6.06 2.04.24 1.15.18 1.48.25 1.01.19 1.58.33.7.16.81.19 1 .26.84.24.5.14.33.1.53-.57 1.02-1.01 1.13-1.15 1.24-1.3 1.12-1.28 1.17-1.31 1.17-1.29 1.19-1.3 1.24-1.31.54-.56z" /><path d="m479.9 240.49l.73-.79 1.73-1.87 1.46-1.55 1.87-2.01 1.5-1.63 3.55-3.79.87-.93 1.08-1.14.42-.43 1.15-1.27 2.48-2.69 1.04-1.12-1.37-1.51-3.16-3.54-1.44-1.64-2.26-2.56-.66-.73-.78-.88-.61-.68-.22-.25-1.17-1.35-1.03-1.17-.4-.44-1.63-1.78-1.98-2.21-.26-.29-.25-.28-1.33-1.49-.26-.28-.5.47-.75.69-1.5 1.34-.95.87-1.36 1.21-.76.67-.91.8-.35.35-.21.23-.46.51-.88.8-1.33 1.13-.81.66-1.16.79-1.11.7-.79.46-.43.23-.33.11-.24.03-.24.07-.18.1-.09.09-.05.1-.03.17.01.12.05.11.28.34.42.43.59.58 1.18 1.12 1.01.92 1.15.97.43.36.3.25.78.67.68.82.64.73.12.14.18.19.9.95.52.56.19.2.87.99.41.43 1.4 1.48.37.41.95 1.07.69.74-.23.18-.37.32-.59.52-.78.79-1.55 1.74-.42.45-2.01 2.07-.25.24-.59.56-.85.81.36.19 1.44.72 1.96 1.03.92.45.45.26.42.24.05.02.38.2.34.19.34.22.92.54.71.42.83.51.75.47z" /><path d="m435.23 280.02l1.19.45 1.05.44 1.03.47.69.32.86.39.57.26 1.01-1.07 1.71-1.85 1.08-1.14.8-.83.85-.9.81-.86.92-.98.7-.74.5-.53.67-.69.64-.7.96-1.01.99-1.07.82-.88 1.08-1.14 2.35-2.47 2.06-2.24.56-.59.26-.27.94-.97-2.35-1.33-2.81-1.66-2.79-1.69-2.44-1.43-2.55-1.51-.45-.28-2.35-1.4-.75-.44-2.03-1.22-1.87-1.11-3.94-2.32-3.31-1.97-1.9-1.11-1.56-1.03-.87-.73-.73-.73-.81-1.02-.39-.65-.97-1.88-.25-.53-.88-2.05-1.13-2.58-1.13-2.57-.42-.9-.8-1.7-.4-.95-.31-.6-.38-.82-.63-1.48-.45-1.11-.02-.06-.92 1.04-1.43 1.77-.99 1.19-1.12 1.45-.76 1.08-.85 1.33-.41.69-.72 1.23-.82 1.54-.41.91-.53 1.2-.46 1.1-.4 1.08-.28.79-.57 1.88-.43 1.56-.24.95-.13.63-.14.78-.17 1.1-.09.92-.07.96-.07 1.85.01 1.19.01.34.07.83.08.89.06.9.13 1.63.23 2.37.21 2.38.18 2.02.03.34.06 1.43 0 .87-.04 1.97-.02 1.12-.11 1.18-.17 1.21-.06.46.44.06.59.06 1.21.18 1.11.3.78.22 1.12.32.71.22.71.24.65.22.51.21.66.29.11.05.86.39 1.13.51.7.31 2.6 1.19 1.65.71 1.13.44 1.28.45.34.11 1.44.43.58.17.4.12 1.2.34 1.71.44 1.16.29 1.23.37 1.01.34.89.32z" /><path d="m401.23 270.76l.68-.01 1.01-.03.62-.01 1.07-.05 1.46-.01.46.03.79.04.06-.46.17-1.21.11-1.18.02-1.12.04-1.97 0-.87-.06-1.43-.03-.34-.18-2.02-.21-2.38-.23-2.37-.13-1.63-.06-.9-.08-.89-.07-.83-.01-.34-.01-1.19.07-1.85.07-.96.09-.92.17-1.1.14-.78.13-.63.24-.95.43-1.56.57-1.88.28-.79.4-1.08.46-1.1.53-1.2.41-.91.82-1.54.72-1.23.41-.69.85-1.33.76-1.08 1.12-1.45.99-1.19 1.43-1.77.92-1.04-4.83-10.73-.01-.03-1.15-.33-.15.14-.03.03-.64.62-1.78-.83-1-.38 0 .36-1.29-.66-.03.02-1.19.44-.02 0-.49.18-.06-.1-.82.46-.01.01-2.65-4.28-2.29-3.63-.09-.14-1.58-2.4-.21-.12-.34-.02-1.8.64-.75.42-.77.45-.25.21-.46.73-.08.12.6-1.3 1.73-2.01 1.04-1.17-.16-.31-.2-.22-.61.58-.37.4-.34.39-.89 1.19-.53.73.93-1.58.09-.57-.46-.58-.33.36-1-.95-.96-1.35-.74-1.92-.18-1.33-.13-1.83-.16-1.09-.15-.42-.29.15-.06.23.08.08.29.48-.09.12-.86 2.51-.43.33-.48-.41-.68 1.02 1.15.83.92.2.81.65.22.71-.14.8-.24.8-.2.6-.1.36-.04.91.85 1.01-.47 1.31-.94 2.55-.79-1.06-.64-1.27-.37-.7-.26-.27-.31-.21-2.15-.64-1.31-.33-.4-.02-.41.08-.33.09-1.66.55-.29.09-.14-.03-.19-.01-.3-.13-.13.14 1.37 1.38.8.78 1.72 1.73 1.29 1.3 3.02 1.62-1.28.9-2.66 1.86-.27.17-2.43 1.12-1.52.69-1.1.6-1.26.68-1.38.66-1.31.6-1.38.32-.96.23-.38.09-.65.2-.71.44-.89.59-.91.7-1.32 1.04-.07.36-.4 1.76-.08-.05-.19.88-.08.51-.05.21-.07.11-.12.16-.7.55-1.18.99-.62.54-1.77-1.19.23-.35-.54-.37-1.46-.99-.97-.65-1-.67-1.5-1.04-.4-.25-2.09-1.41-.32-.22-.23.82-3.05-.87-.6-.17-3.59-1.01-1.79-.5-.27-.05-1.57-.24-3.37-.4-3.21-.38-3.28-.37-1.66 2.26-1.02.68-.86.34-1.88.68.32 3.44.14 1.35 1.37 2.25.6 1.02 3.01.46 1.6-.02 1.2-.08 3.96.99 1.26.33 3.1 1.3.87.29 1.62.57 3.56.64-1.05 3.6-.18.68-.84 2.93-.41 1.34-.35 1.25-.29.97-1.03 3.44-.71 2.56-4.42-1.01-2.87-.66-2.26-.57-4.95-1.23-.09.17-1.27 1.87-.21 1.1-.14.63-.64 2.58-.06.93-.46 6.68.13.14.84.89.44.39.27.19 1.7.95.6.25.35.11 1.13.3.24.06.56.24.6.31 1.32.76 2.16 1.31 2.51 1.53.94.56 3.47 2.18.93.51.46.17.22.09 1.9.56.8.24.39.05.35.03.4 0 .34-.01.42-.08.8-.15 3.43-.56.87-.13 2.63-.33.23-.01.33.02.32.04 2.61.46.48.07 1.58.16 1.38.09 1.07.04 1.56-.04.76-.02 1.32-.03 2.17-.01 2.28.02 1.09.01 1.57.02 1.25.01.9.04 1.14.05.9.03 3.06-.04 2.84.01 2.53.02 1.47.06 1.58.04.4-.02.63-.02.83-.01 1.08-.07 1.41-.07 1.97-.09.19-.01z" /><path d="m495.36 310.12l1.51.22.83.11.43-.01.17-.04.23-.13.55-.36.77-.52.61-.29.81-.3.2-.07.62-.21.27-.05.46.14.42.2.28.1.93.15.81.09.45.01.45-.05 1.12-.03 1.66-.06.63-.01 2.79-.1.33 0 .9-.03.89-.03.5-.01.4.03.18.05.22.05.21.09.56.21 1.1.41.33.13.29.09.27.03.26 0 .8-.04 1.24-.12.03-.63.01-.34.01-.44.06-1.19.05-.83.07-1.83.05-.61.05-.72.23-2.3.27-2.28.16-1.17.05-.55.02-.92.02-.86.07-.61.09-.5.28-1.41.3-1.38.21-.98-.9.06-1.53.06-.94-.02-.39-.04-.3-.03-.63-.11-.77-.19-.5-.14-.53-.16-1.29-.47-1.4-.58-3.95-1.77-1.16-.52-1.26-.52-1.22-.45-.15-.05-1.08-.33-1.18-.3-1.04-.24-2.46-.59-.87-.19-3.72-1.51-.57.9-.61.63-.24.47-.25.41-.75 1.2-.83 1.21-.7.8-1.76 1.82-.8.85-1.11 1.22-.34.42-.31.4-.37.57-.4.67-1.13 2.07-1.13 2.06-1.1 2.09-.14.26-1.01 1.82-.56 1.12-.44.96-.37 1.01-.28.85 1.19.18 2.88.36.47.07.92.06.97 0 .62-.07.47-.08.46-.11.49-.18.76-.33.75-.33 1.05-.49.39-.18 1.35-.53.99-.33 1.25-.39 1.15-.41.97-.37.48-.26-.07.31-.3.75-.1.19-.23.54-.41.93-.24.7-.16.73-.21 1.47-.07 1.52-.3.2-.56.23z" /><path d="m694.73 350.85l-.23-.24.12-.05-.13-.12-.24-.39-.18-.23-.23-.24-.29-.32-.2-.19-.16-.27-.12-.27-.15-.4-.22-.33-.27-.14-.24 0-.38.01-.82.08-.53 0-.42-.04-.38-.11-.42-.18-.46-.19-.46-.17-.35-.01-.4.03-.62.18-.25-.01-.21-.01-.32-.15-.35-.25-.3-.36-.2-.36-.15-.28-.07-.31-.03-.26.06-.32.05-.25.04-.12.09-.16.27-.37.23-.32.19-.29.12-.42-.04-.3-.07-.37-.25-.33-.45-.38-.55-.3-.39-.17-.72-.63-.61-.73-.35-.6-.22-.6-.23-.7-.16-.31-.31-.53-.26-.28-.23-.25-.4-.39-.47-.47-.23-.37-.27-.44-.04-.1-.26-.63-.21-.59-.02-.07-.27-.64-.31-.65-.4-.74-.63-.81-.41-.47-.04 0-.68-.07-.61-.07-.9-.45-2.87-1.39-1.4-.68-.97-.46-1.21-.61-.54-.27-.28-.13-.63-.31-.76-.37-1.78-.84-.95-.45-.83-.47-1.07-.6-.62-.34-.65-.37-.52-.27-.18-.18-1.66-1.56-.32-.31-.66-.63-.34-.32-1.51-1.45-.45-.4-.08-.07-.7-.67-.73-.78-.48-.48-.44-.44-.77-.77-.5-.5-1.37-1.37-1.38-1.41-.21.18-.26.19-.5-.54-.56-.67-.37-.45-.26-.36-.66-.63-.64-.62-.31-.31-1.06-1.13-.69-.73-.84-.9-.28.22-.19-.22-.24-.22-.49-.41-.32-.26-.25-.19-.13-.13-.22-.12-.31-.23-.18-.12-.12-.14-.06-.12-.02-.13.01-.23-.31.11-.62.14-.48.08-.55.01-.17-.01-.16.33-.23.45-.25.55-.25.56-.35.72-.36.8-.09.18-.45.95-.28.61-.25.52-.31.61-.07.18-.17.43-.25.61-.23.58-.49 1.24-.82-.37-.18-.11-.1-.07-.05.35-.08.3-.13.41-.09.21-.11.14-.1.15-.15.35-.14.6-.12.39-.27 1.05-.21.9-.07.41-.09.6-.04.93.05.77.13.6.13.64-.81-.28-2.5-.87-.7-.24-1.73-.62-1.15-.42-1.73-.58-1.18-.4-1.43-.47-1.66-.6-1.96-.68-.95-.35-.7-.21-1.61-.46-1.64-.41-.39-.09-1.48-.36-1.56-.38-.06.18.01.11-.72-.15-.19.46-.53 1.07-1.27 2.54-.29 3.93-.11.83-.34 1.39.53.33-.29.02-.75 1.94-5.75 6.89-4.66 5.59-6.37 7.61-6.23 7.45 8.47 7.84 13.22 12.25 12.86 11.91 1.25-1.99.37-.57 1.48-1.77.96-1.2.45-.57 2.01-1.57 1.53-1.12.76-.55 1.4-.15 2.57-1.29.65-.34 2.57-1.14 1.48-.92.71-.43 3.19-1.97 2.2-1.16.24-.67.38-1.16.23-.64.99-.99 1.37-.61 1.07-.5 1.09-.32 1.13-.36 2.53-1.23.84-.97.22-1.72.27-1.98.05-.4.64-1.15.92-.69.8-.55 2.28-1.04.55-.27 2.44-.89.25-.11.7-.31.95-.46.9-.4.71-.37.84-.51 1.16-.72.02-.36.51-.64.51-.63 1.33-.97.83-.64.51-.4.89-.68 1.75-1.04 1.37-.41.29-.09 0 0 .98-.3.53-.45.83-.66.94-.63.2-.25.09-.11.25.17.15.14.7-.23.84-.29.45-.14.18-.06.49-.18.51.27 1.66.88.19.1.5.29.58.38.47.41.59.42.08.05.1.05.9.54.12.06.25.13.55.28.3.2.37.28.3.33.25.33.44.67.2.32.19.29.4.46.46.32.3.06.37 0 .61.12.47.18.26.11.34.17 1.14.57.42.17.22.07 1.1.34.53.16.37.21.4.22.18.1.76.42.74.35.09.02.34.05z" /><path d="m368.48 219.98l1.32-1.04.91-.7.89-.59.71-.44.65-.2.38-.09.96-.23 1.38-.32 1.31-.6 1.38-.66 1.26-.68 1.1-.6 1.52-.69 2.43-1.12.27-.17 2.66-1.86 1.28-.9-3.02-1.62-1.29-1.3-1.72-1.73-.8-.78-1.37-1.38-.75-.76-.91-.05-1.64-.82-1.62-1.95-.29-.37-.6-1.41-.28-.66-.36-.8.35-1.67.22-1.05-.09-1.45-.09-1.3-.07-.29-.39-1.56.55-1.8.19-.62 3.49-.04 3.04-.63.1-.09-1.24-1.69-.73-1.01-.55-1.12-.12-.35-.32-.98-.61-1.45.33-.64-1.31-.42-.91-1.23-1.37-.1-2.85-.14-.69-.02-.85-.05-1.53.07-1.37.54-1.36.84-1.07.71-.8.55-.11-.02-.85-1.06-.03-.18-.32.29-.75.7-1.27 1.15-.5.45-1.78 1.6-.86.81-.51.48-1.42 1.27-.17-.13-.42.41-.44.41.16.2-3.34 3.19-.29.29-1.62 1.64-.57.59-1.11 1.1-.37.37-.89.95-.37.43-1.94 2.07-1.94 2.12-.33.36-1.56 1.77-.62.75-1.83 2.18-.04.09-.39.83-.45.9-.34 1.14-.79 2.39-.06.16-.27.77-.63 1.56-.22.54-.34 1.88-.42 2.49-.05.28 3.28.37 3.21.38 3.37.4 1.57.24.27.05 1.79.5 3.59 1.01.6.17 3.05.87.23-.82.32.22 2.09 1.41.4.25 1.5 1.04 1 .67.97.65 1.46.99.54.37-.23.35 1.77 1.19.62-.54 1.18-.99.7-.55.12-.16.07-.11.05-.21.08-.51.19-.88.08.05.4-1.76.07-.36z" /><path d="m567.49 197.46l0 0 1.23.25 2.68.27 5.61.27 4.56.17-.33-1.4-.02-2.25.2-2.21.16-1.88.17-1.45.68-1.75.65-.98.86-.65.81-.47 1.45-.38 1.33-1.03 1.63-1.45.46.06.51.03.2.19.37.24.35.13.19.2.22.16.27.15.18.08.1.15.26.31.21.15.27.06.31 0 .25.11.18.11.19.12.1.24.07.13.3.25.13.14-.05.18-.01.29.13.02.27.05.18.05.16.15.11.13.1.05.26.07.25.05.15.1.08.19.16.33.23.34.24.2.37.25.28.24.1.23.07.37.39.32.62.51.54.39.22-.26.52-.62.75-.89 1.1-.93.98-.66 1.44-.91 1.38-.81 1.21-.74 1-.64 1.05-.77.81-.65.42-.32.62 1.2.19.78 1.33 1.12.67 1.15 1.06.96.31.87.42 1.02-.54 1.73.38.83.4.76 1.77 1.38 1.36 1.64 1.32 1.24.13 1.36 1.17.95.97.29 1.38-.46 2.54-.24 2.49-.53 2.49.85 2.04.18 1.07.39.95.37.69.98 1.12 1.19 1.62.98 1.51.22 1.12.24 1.08-.62-.56-1.16-.65-1.33-1-2.31-1.58-2.25-.61-.81-1.22-1.28-1.34-1.22-1.66-1.33-.8-.77-1.23-.69-.82-.1-2.25 0-1 .01-1.76-.09-1.49-1.47-1.51-1.5-2-.57-1.78-1.75-1.51-1.28-.63-.62-.97-1.12-.8-2.02-.76-1.48-1.01-.48-.93-.36-.51-.15-1.1 1.17-.88.95-.75.45-.24-.04-.74-.42-1.01-.44-1.06-.18-.53-.19-.43-.82-.39-.9-1.42-3.11-.63-2.23-.45-1.64-.74-1.02-.81-1.2-1.17-1.68-.62-.71-.91-1.01-1.01-1.12-.18-.95-.23-1.01-.42-1.89-.73-1.7-1.74-3.43-1.81-3.52-.81-1.4-.59-.99-.46-.77-.19-.12-.5.28-.56.41-.95.7-.78.58-.73.55-.75.55-.51.67.08.09-.3.6-.18.25-.15.3-.18.45-.07.25-.04.4-.54-.01.06-.41-.5-.38-.32-.11-.39-.07-.31.09-.29.2-.31.09-.21.01-1.99-.54.17-.98.1-.72-.09-.38-.2-.61-.36-.87-.54-.91.51-.13.51-.15-.65-1.38-.35-.69-.64-1.29-.25-.18-.74-.54-.94-.7-.83-.61-1.19-.83-.63-.45-.22-.11-.72-.49-.92-1.22-.34-.4-.38-.7-.52-.5-.59-.41-1.16-.68-1.36-.67-.61-.37-.83-.43-1.29-.57-1.39-.45-.34-.12-.27-.07-.23-.06-2.5-.43-1.61.02-.25.02-.69.24-.08.03-.68.19.09 1.26-.04 1.35-.02.77-.05.81-.09 1.02-.14 1.21-.2 1.36-.2.89-.31 1.33-.32 1.09-.5 1.57-.56 1.43-.7 1.72-.98 2.21-.61 1.36-1.37 3.02-1.02 2.26-2.35 5.31-.69 1.66-.32.97-.32 1.1-.22 1.01-.08.54-.25 1.76-.1 1.37-.04.63-1.09 1.19-1.1 1.22-1.4 1.62-1.2 1.31-1.92 2.03-1.94 2.07-.62.66.42.53.53.42 1.56 1.43 1.44 1.37.71.68.72.67.2.21.19.11.86.35.04.02 1.9.6 1.27.46-.09.32-.09.27-.59 2.2-.29 1.04-.14.52-.32.99-.29.72-.49 1.51-.11.32-.45 1.35-.46 1.34.87.2.67.22.69.29.55.26.55.29.65.39.52.28.4.21.42.25.67-1.03.53-.79.47-.71.59-.91.77-1.17.32.17.19.04.27.03.92.05.53.07.23.06 1.77.27 2.05.3.06.02 0 0 .68.17.62.14.34.06.2.04.22-.02.2-.03.4-.23.43-.3.18.27.42.29.29.13.35.05.66.05.64.07.45.08.57.12.32.08.71.15.15-.78.31-1.24.18-.68.01-.05 1.02.48.34.13.15.11.26-.36.01-.01 1.33.44z" /><path d="m444.89 184.84l1.73-1.79.49-.53.82-.86.49-.55.54-.59.49-.58.74-.88.55-.7.17-.2 1.08-1.44 1.11-1.47 1.62-2.19-.54-.61-.19-.22-.86-.96-1.46-1.62-.95-1.06-2.5-2.82-2.62-2.92-2.57-2.89-1.71-1.92-.93-1.04-.05-.06-2.57-2.88-3-3.26-2.61-2.89-2.35-2.62-2.55-2.87-2.66-2.96-2.63-2.98-1.13-1.17-1.33.63-1.27.59-.23.1-.07.03-.16.4-.15.3 1.59 1.05.87.66-2.59 2.42-1.6.55-1.09 1.17.9.99.47.54.92 2.08.37 2.7.24 1.81 1 .88.65.66.92.96.31.38.02.02.58.69-.41 1.05-.25.51-.5.59.01.18-.74.61.46.71.5 1.52.25.75.27.78.54.95.08 1.68.06 1.29 0 0 0 0 .17 2.09-.43.71-.32 1.16-.5-.06-.3-.01-.44-.06-.14 1.12-.16 2.05.49.12-.02 1.78 0 .33-.02 3.1-.04 2-.02 1.52-.01 1.03-.01.73-.01.3 0 1.19-.01 1.16-.03.88 0 .53-.06 2.63 1.42.6.58.25 2.51 1.06.33.14 3.46 1.46 5.96 2.48-.13.31.56.37.52.34.49-.77.71-1.02.52-.77.42-.56.88-1.16.88-1.07.65-.78.54-.63.67-.77 1.3-1.37.87-.88 1.45-1.51.7-.72z" /><path d="m461.24 260.44l.83-.88 1.3-1.41 1.71-1.86.95-1 1.42-1.48.02-.03.43-.5.52-.54 1.15-1.23.92-.98 1.43-1.52.24-.25.61-.63 1.32-1.44.45-.49 1.86-1.99 1.88-1.99 1.62-1.73-.75-.47-.83-.51-.71-.42-.92-.54-.34-.22-.34-.19-.38-.2-.05-.02-.42-.24-.45-.26-.92-.45-1.96-1.03-1.44-.72-.36-.19.85-.81.59-.56.25-.24 2.01-2.07.42-.45 1.55-1.74.78-.79.59-.52.37-.32.23-.18-.69-.74-.95-1.07-.37-.41-1.4-1.48-.41-.43-.87-.99-.19-.2-.52-.56-.9-.95-.18-.19-.12-.14-.64-.73-.68-.82-.78-.67-.3-.25-.43-.36-1.15-.97-1.01-.92-1.18-1.12-.59-.58-.42-.43-.28-.34-.46 0-.95-.48-.79-.21-.5.01-1.17.27-.54.19-1.75.63-.23.11-.32.45-.34.5-.26.3-.34.16-.33-.06-10.33-8.17-.21.14-.35.32-1.23 1.36-1.02 1.08-.72.82-.54.64.96.77.84.84.22.3.24.49.2.47.2.32.15.2.8.69 1.02.88.63.49.26.15.37.12.21.05.55.14.18.06 1 .94.2.2.03.1-.11.31-.14.26-.29.34-.33.51-.22.04-1.77 1.87-1.69 1.8-.37.36-1.14 1.17-.92.94-.69.74-.67.71-.72.75-.46.49-.37.38-.45.48-.01 0-.6.95-.82.89.29.27-.41.39-.45.44-1.31 1.25-1.3 1.23-.61.6.15.34.2.13.07.14.04.32.06.24.07.06.08.04.05.06.01.69.08.17.12.1.1.04.18.04.08.07.1.37.07.17.1.09.04.1-.07.2-.34.54.96.56 1.12.66 1.55 1.02.61.69 1.09 1.21.75.41.95-.47 1.02-.5.41-.12.46-.05.35.05.27.11.61.36 1.16.98 1.2 1.01.12.15.03.04.48.61 1.11 1.64.02.02.34.5.26.34-1.84.44-2.18.54-1.78.41-1 .23-1.18.27 2.03 1.22.75.44 2.35 1.4.45.28 2.55 1.51 2.44 1.43 2.79 1.69 2.81 1.66 2.35 1.33.91-.98z" /><path d="m532.09 228.53l1.68-.13 1.25-.1.96-.09 1.36-.12 1.16-.06 1.27-.09.15.85.1.58.07.38 1.39.02 1.82.22 1.33.16.61.06.72-.18.85-.22.49-.12.57-.07.6-.07.41-.02.45.02.54.14 1 .34 1.21.4.77.27.41.17.49.24.85.46.77.34.44.11.53.08.6.02.78-.03.8-.02.76-.02.73-.06.38.02.36.05.53.18.61.19.36.07.2.01.12-.04.25-.11.22-.09 1.04-.34.59-.19.48-.18.15-.1.2-.15.39-.3.32-.21.43-.13.55-.12.48-.1.58-.11 1.32-.17.76-.08.47-.03.31.04.35.16.4.33.52.37.32.12.28.11.23-.21.33-.39.53-.83.59-.93.5-.78.45-.71.5-.7.63-.69.71-.68.42-.37.9-.7.34-.38.48-.52.41-.39.61-.49.5-.29.47-.22.28-.2.19-.35.15-.39.23-.66.2-.39.94-1.36.56-.82.65-.88.23-.35.43-.93.45-.94.17-.56.2-.41.29-.51.31-.72.08-.53-.12-.84-.04-.64.03-.49.28-.58.56-.84.47-.54-.16-.12-.02-.12-.07-.1.02-.19.54-.47.51-.47.29-.15-.71-.69-1.33-1.37-.72-.75-1.4-.38-2.38-2.6-1.04-1.76-.08-.39-4.56-.17-5.61-.27-2.68-.27-1.23-.25 0 0-1.33-.44-.01.01-.26.36-.15-.11-.34-.13-1.02-.48-.01.05-.18.68-.31 1.24-.15.78-.71-.15-.32-.08-.57-.12-.45-.08-.64-.07-.66-.05-.35-.05-.29-.13-.42-.29-.18-.27-.43.3-.4.23-.2.03-.22.02-.2-.04-.34-.06-.62-.14-.68-.17 0 0-.06-.02-2.05-.3-1.77-.27-.23-.06-.53-.07-.92-.05-.27-.03-.19-.04-.32-.17-.77 1.17-.59.91-.47.71-.53.79-.67 1.03-2.09 3.17-.13.19-.46.72-.86 1.36-.91 1.37-.71 1.09-1.08 1.68-.76 1.15-.81 1.22-.34.5-.81 1.24-.8 1.23-.72 1.09-1.29 1.98-1.52 2.32-.3.46-.69 1.05-.69 1-1.09 1.69-1.15 1.77.39.24.2.13.23.08.32.02.65-.05.49-.03.34-.04z" /><path d="m547.2 279.18l.35.04.4-.02.55-.11.83-.13.78-.16.4-.13.31-.16.6-.33.37-.12.99-.02.69.03.96.02.53.08.65.18.49.05.26-.11.34-.22.69-.5.47-.2.58-.15.66-.16.62-.2.38-.24.3-.29.4-.36.27-.18.25-.04.31.07.29.2.44.46.42.43.29.16.34.11.88.24.54.11.33-.02.32-.13.22-.2.2-.27.13-.31.16-.98.15-.71.2-.27.27-.18 1.37-.36.91-.22.98-.48.46-.38.23-.29.13-.42.04-.27-.09-.6-.17-.87-.05-.67.02-.29.3-.27 1.02-.33 1.1-.29 2.47-.62.87-.13.14.24.26.3.5.29 1.08.58.88.41.52.12.41 0 .44-.09.73-.23.65-.32 1.63-1.64 1.79-1.73.53-.47.35-.17.35-.29.17-.24.03-.35-.06-.2-.14-.24-.21-.29-.29-.35-.15-.21-.08-.26.05-.41.44-.76.76-.96.73-.79.36-.24.64-.09.41-.17.2-.15.09-.32.35.12.65.12.55 0 .26-.09.79-.35.77-.44.76-.35.43-.41.62-.65.91-.96-4.33-.88-7.23-1.37-.06-.02-7.45-1.47-.75-.14-.24-.01-.17-.09-1.29-1.31-.74-.53-.66-.41-.78-.38-1.57-.75-1.47-.61-.78-.23-.93-.27-.01 0-.12-.04-.76-.17-.59-.03-.76.08-.51.18-.16.06-.48.17-.68.3-.45.36-.46.38-.53.49-.42.48-.48.68-.44.85-1.03-.87-1.09-.87-.64.85-.49.66-.72-.7-.68-.65-.64-.48-.73-.47-.39-.22-1.02-.38-.95-.25-.88-.22-.8-.1.08-.16.04-.17.03-.57.11-1.66-3.82-.31-2.41-.19-.88-.14-2.45-.45-2.12-.37-2.06-.83-1.42-.59-.65-.33-.62-.34-.39-.2-1.36-.69-.84-.42-.71-.28-2.67-.92-1.55-.57-.34-.14-.19-.13-.53-.25-1.35-.84-.4-.26-.57.85-.95 1.39-.91 1.23-1.08 1.34-1.03 1.29-1.1 1.37-.94 1.25-.9 1.31-.75 1.13-.6.96-1.04 1.77-.9 1.6-.03.05-.95 1.6-1.37 2.63.54.2 1.56.57.04.02.22.09.7.24 1.05.35 2.83.79 1.5.42.66.16.95.23.55.12 2.75.54.28.06 2.26.47 1.43.31 2.78.51 1.99.39 1.4.18.63.13.48.1.22.09.47.25 1.13.48.8.42 1.4.62 1.23.56.46.21.73.33.17.07.88.39.8.37 1.1.48.67.29.23.15.23.21.22.31.06.19.48-.98.49.29.79.45 1.14.65.63.35-.09.23-.19.68-.18.75-.22.74-.25.57-.28.6-.34.73-.33.69-.25.6-.38.49-.42.46-.24.33-.26.66-.06.15-.16.41.43.18.43.29.41.41.29.38.18.32.01.23-.08.22-.22.26-.25.23z" /><path d="m475.37 350.01l.51.08.57.09.25.02 1.38.17 1 .11.16-.68.22-.81.34-1.53.31-1.11.05-.12.07-.16.58-.93.25-.35.35-.52.35-.49 0 0-.16-.11-.07-.01-.06-.02-.05-.02-.05-.03-.04-.05-.38-.77-.73-1.49-.35-.38-.23.02-.52.06-.6.18-.79-.18-1.07-.25-.46-.1.08-.89.07-.64.03-.47.03-.42.08-1.24.08-.69.09-.38-1.01-.24-1.13-.33-.55-.2-.41-.22-.82-.5-.37-.23-.77-.46-.4-.2-.5-.22-.45-.17-.28-.08-.31-.07-1.08-.2-.58-.13-.56-.13-.11-.03-.44-.13-.52-.18-.37-.17-.55-.31-.7-.46-.14-.11-.43-.35-.8.35-1.02.4-1.37.45-1.56.42-1.59.36-1.4.28-1.26.23-.01 0-.03.01-1.35.22-1.07.18-2.09.35-1.92.32-1.66.29-.18.81-.16 1.02-.09.79.15.08.32.1.32.13.34.19.16.14.28.2.28.15.24.1.31.14.32.17.32.23.25.19.31.18.24.1.2.08.27.07.31.08.15.04.13.07.13.2.2.47.31.6.28.51.21.31.18.15.32.19.51.35.25.13.24.08.16.13.13.08.3.12.15.15.02.11-.01.14.02.14.15.17.28.29.3.26.21.12.21.03.28 0 .16 0 .13.05.14.13.12.05.03 0 .17 0 .2 0 .19 0 .17.06.14.13.09.18.12.13.17.1.24.05.34.05.17.08.18.17.17.05.15-.04.13-.03.12.03.17.15.13.12.12.08.18.09.14.05.12.08.17.18.14.16.15.12.16.07.23.04.1.01.09.01.13.06.12.11.17.07.21-.04.16.03.17.09.17.14.2.17.18.07.21.04.33.05.28.05.46.13.39.12.31.14.23.1.71.49.12.08.66.47.66.5.88.68.27.09.24.13.2.23.2.17.2.18.18.08.21.01.14.05.19.14.21.07.2.09.14.16.08.45.21.42.81-1.42 1.28-2.22 2.28 1.05z" /><path d="m430.99 203.71l1.02-2.03.26-.51.66-1.2.84-1.44 1.04-1.68-.52-.34-.56-.37.13-.31-5.96-2.48-3.46-1.46-.33-.14-2.51-1.06-.58-.25-1.42-.6.06-2.63 0-.53.03-.88.01-1.16 0-1.19.01-.3.01-.73.01-1.03.02-1.52.04-2 .02-3.1 0-.33.02-1.78-.49-.12.16-2.05.14-1.12.44.06.3.01.5.06.32-1.16.43-.71-.17-2.09 0 0 0 0-.06-1.29-.08-1.68-.54-.95-.27-.78-.25-.75-.5-1.52-.46-.71.74-.61-.01-.18.5-.59.25-.51.41-1.05-.58-.69-.02-.02-.31-.38-.92-.96-.65-.66-1-.88-.24-1.81-.37-2.7-.92-2.08-.47-.54-.9-.99 1.09-1.17 1.6-.55 2.59-2.42-.87-.66-1.59-1.05.15-.3-.78-.56-.43-.31-.39-.29-.31-.34-.27-.44-.17-.36-.32-.59-.37-.62-.24-.27-.09-.08-.28-.2-.52-.33-.73-.34-.29-.16-.33-.18-1.7-1.04-.61-.41-1.05-.69-.85-.55-1.03-.67-2.2 1.84-3 2.38-2.27-.93-3.9-1.58-.98-.39-4.24-1.79-2.54-1.09-1.35 2.9-1.24 2.88-.71 1.22-.58 1.12-.9 1.71.43 1.56-1.68-.1-.02.06-.98 2.43.81 1.76 1.2 2.57.62 1.34.57 1.25.82 1.74 1.5 3.45.14-.04 1.14 2.65.56 1.5.19.46-1.59 1.47-1.15.99-.66.59-1.91 1.35-1.96 1.3-1.7.98-1.18.39-1.33.14-1.95-.1-1.79-.09-2.49-.14-1.45-.08-1.36-.17-1.23-.54-1.1-.75-1.13-.84-1.03 1.26.93.79.97.88.77.98.3.68.24.52.17 1.44.06.51-.03 1.99-.19 1.9-.65 1.37-1 1.16-1.12 1.03-.65.67.03.18.85 1.06.11.02.8-.55 1.07-.71 1.36-.84 1.37-.54 1.53-.07.85.05.69.02 2.85.14 1.37.1.91 1.23 1.31.42-.33.64.61 1.45.32.98.12.35.55 1.12.73 1.01 1.24 1.69-.1.09-3.04.63-3.49.04-.19.62-.55 1.8.39 1.56.07.29.09 1.3.09 1.45-.22 1.05-.35 1.67.36.8.28.66.6 1.41.29.37 1.62 1.95 1.64.82.91.05.75.76.13-.14.3.13.19.01.14.03.29-.09 1.66-.55.33-.09.41-.08.4.02 1.31.33 2.15.64.31.21.26.27.37.7.64 1.27.79 1.06.94-2.55.47-1.31-.85-1.01.04-.91.1-.36.2-.6.24-.8.14-.8-.22-.71-.81-.65-.92-.2-1.15-.83.68-1.02.48.41.43-.33.86-2.51.09-.12-.29-.48-.08-.08.06-.23.29-.15.15.42.16 1.09.13 1.83.18 1.33.74 1.92.96 1.35 1 .95.33-.36.46.58-.09.57-.93 1.58.53-.73.89-1.19.34-.39.37-.4.61-.58.2.22.16.31-1.04 1.17-1.73 2.01-.6 1.3.08-.12.46-.73.25-.21.77-.45.75-.42 1.8-.64.34.02.21.12 1.58 2.4.09.14 2.29 3.63 2.65 4.28.01-.01.82-.46.06.1.49-.18.02 0 1.19-.44.03-.02 1.29.66 0-.36 1 .38 1.78.83.64-.62.03-.03.15-.14 1.15.33.01.03 4.83 10.73.61-.71.65-.73.92-1.07.77-.92.6-.73 1.06-1.29 1.42-1.9 1.25-1.85.96-1.6.12-.2.26-.42.54-1.05.79-1.52.79-1.62 1.59-3.24z" /><path d="m476.28 299.4l-.52-.36-.72-.45-1.58-.91-1.11-.67-1.74-1.06-1.29-.77-1.58-.93-.93-.54-.68-.41-.4-.25-.08-.05-.97-.72-1.22-.84-.32-.22-.62-.36-1.44-.68-.74-.33-2.23-1.04-1.49-.65-.33-.1-.79-.22-1.33-.37-1.07-.24-.19-.05-1.03-.24-1.33-.35-.74-.23-.93-.33-1.49-.58-1.16-.52-.58-.31-1.32-.62-.71-.32-1.95-.86-1.05-.47-1.05 1.12-.62.67-.68.7-.72.79-1.04 1.16-.97 1.04-.06.06-.81.84-1.17 1.23-.5.54-.63.69-.54.59-1.23 1.31-.09.09-.49.5-1.19 1.25-.6.65-.06.05-.54.56-1.24 1.31-1.19 1.3-1.17 1.29-1.17 1.31-1.12 1.28-1.24 1.3-1.13 1.15-1.02 1.01-.53.57 1.03.3.1.03.68.22.5.18 2.34.81 2.26.76.98.34 1.81.62 1.1.34 1.84.55.86.24.25.06 1.49.35 1.29.25 1.08.17.94.12 1.13.09 1.29.08 1.23.02.77-.04.55-.05 1.6-.18 1.01-.14.76-.12.83-.14.44-.07 2.86-.48 1.66-.29 1.91-.36 1-.16 1.2-.23.8-.2.65-.19.78-.3.52-.23.26-.1.52-.22.4-.17.4-.17.58-.21.87-.27.51-.12.5-.12.58-.11.55-.09.41-.08 1.07-.21 1.5-.27 1.62-.27 1.41-.2 1.04-.12 1.03-.11.66-.08.82-.08.55-.05.49-.03.93-.07.63-.04.33-.04 1.71-.05 1.33-.06.69.01.37.02.24.03-.28-.79-.57-1.47-.18-.38-.4-.98-.32-.75-.31-.55-.26-.37-.07-.13.02-.2-.71-.76z" /><path d="m435.07 138.88l.42.12 1.95.43.98-.3 2.75-.75 1.2-.67 2.61-.88 1.58-.48.97-.3 2.73-.14.01 0 .55-.02 1.12-.06.37-.19 2.75-1.39 3.68-1.83.52-.26 2.64-1.13 1.55-.71.64-.27 2.4.15.32.03.7.04 1.88.11 2.22.03.76.04 3.47-1.59.74-.35.69.06 1.76.12 4.22-.31 1.78-1.09.5-1.74.34-.6 1.31-1.67 1.66-2.59.93-1.47.4-.68.76-2.38.31-1.02.57-1.68-.07-2.37-.05-.66-.08-3.09-.57-2.07-.62-2.11-.96-1.46.8-2.48.5-1.68 1.53-2.35.12-.19-.67-1.76.13-1.51-1.2-3.08-.6-2.74-.05-.22-.46-2.34-.15-.57-.53-2.89-.58-2.81-.17-.82-.24-1.47-.54-2.56-.2-.94-.64-3.06-.07-.41.18-.4.02-.03 0-.01 1.43-3.19.32-.69 1.5-3.3.4-.93.7-1.58.19-.44.1-.23.26-.58 1.56-3.43 1.73-3.88-.87-2.41-.59-1.85-1.6-3.15-.27-.62-1.54-2.48-.53-.88-1.9-2.22-.8-.97-.44-.5-.53-.53-1.11-1.07-1.61-1.56-1.25-1.41-.45-.49-1.45-1.64-.72-.99-1.14-1.56-.93-1.31-.42-.73-.82-1.42-.61-.97-.57-1.05-1.06-2.09-.35-.66-.74-1.39-.33-1.01-.4-1.04-.12-.06-2.79-1.97-1.31-.82-1.58-.99-1.14-.37-.63-.22-1.31-.4-1.88-.64-.54.32-1.17.73-3.23 1.39-1.07.45-3.38-3.03-1.17-1.01-1.63-1.51-1.6 1.71-2.8 2.94-2.78 2.97-2 2.16-.66.7-.29.31-1.8 1.91-1.84 1.96-.94 1-.85.92-.88.94-.93.97-.76.83-1.02 1.11-.25.24-.45.52-1.04 1.23-.7.79-.99 1.18-.77.87.61 1.1.86 1.6.09.38.42 1.8-.48 1.64-.35.3-.49.36-.41.24-1.64.89-1.01.56-.41.19-.01 0-.58.26-.75.32-.47-.07-1.83-.14-1.84-.1-.15 0-.36 0-1.65 0-.56-.01-1.43.01-.88 0-1.07.01-1.01.03-.99-.01-1.62-.05-.86-.04-1.27.12-.07.11-.08.19-.49.02-.39.01.07.15-.2.78-.41 1.42-.42 1.41-.44 1.42-.44 1.31 1.16.09 2.26.14-.26.71-.52 1.42-.48 1.38-.46 1.41-.49 1.41-.46 1.38-.47 1.4-.49 1.41-.45 1.38-.12.28.59.47-.65.64-1.41 1.42-1.41 1.4-1.4 1.41-1.06 1.06 1.31.27.37.05.96.13.98.07.56.02 1.42.02 1.27-.03.8.09-.22.89-.13.59-.43 1.78-.03.14-1.81.94-.21 1.76-.18 1.3-.16 1.39-.27 2.15-.21 1.85-.08.29-.31 1.42-.48 2.22-.26 1.31-.41.58.04.6.06 1.22-.02.29-.12 1.42-.06.61-.27.95-.39 1.28-1.29 2.77-.26.63-.47 1.2 2.18.97-.61 1.27-1 2.18-.17-.14-2.16 1.38-2.68 1.71 1.56 1.72-.47.51-.25.43-.17 1.17-.25 1.24-.61 3.24-.66 3.3-.17.91-.44 2.53-.38 2.29-.16 1.13-.42 3.41-1.32 2.34 2.54 1.09 4.24 1.79.98.39 3.9 1.58 2.27.93 3-2.38 2.2-1.84 1.03.67.85.55 1.05.69.61.41 1.7 1.04.33.18.29.16.73.34.52.33.28.2.09.08.24.27.37.62.32.59.17.36.27.44.31.34.39.29.43.31.78.56.16-.4.07-.03.23-.1 1.27-.59 1.33-.63 1.91-.91.72-.35 1.21.47.79.3.66.25 3.89 1.46 3.18 1.82.97.26.9.27z" /><path d="m520.84 344.18l2.05.12 10.34 1.04 13.88 1.39 14.17 1.41-4.62-8.68-5.3-9.96-3.48-6.55-2.45-7.56-.62-1.72-.44-1.55-1.18.61-1.92.93-1.28.6-.32.19-.6.29-1.19.59-.35-.67-.06-.13-.14-.25-.67-1.35-.18-.39-.23-.54-.1-.41-.08-.46-.05-.52-.01-.65.01-.47.02-.53.04-.48.06-.58.06-.72.24-1.66.32-2.2.05-.63.1-1.31.08-.93.02-.26.04-.42.1-1.09.09-.95.07-.57 0-.44-.06-.82-.03-1.59-.04-1.59-.04-1.57-.02-.79-.01-1.33-.01-.25.82.19-.1-.78 0-.24 0-.27-.48.11-.4.13-.48.19-.35.16-.79.34-.75.33-.44.2-.32.13-.31.12-.78.27-1.19.31-.52.12-.42.07-.47.03-.72 0-.96.02-1.4-.02-1.72.04-2.45-.01-.21.98-.3 1.38-.28 1.41-.09.5-.07.61-.02.86-.02.92-.05.55-.16 1.17-.27 2.28-.23 2.3-.05.72-.05.61-.07 1.83-.05.83-.06 1.19-.01.44-.01.34-.03.63.02.42.02.24.04 1.16.06 1.42.03.74.1 1.25.07.85.08.63.19 1.46.11.76.09.82.14.92.07.47.05.52.04.45.02.65-.03.63-.02.37-.02.32-.1.79-.08.77-.09.8-.05.71-.14 1.42-.05.55-.09.62-.07.45-.03.74.01.89.03 1 0 .65 0 1.66-.02.71-.09.9-.18 1.6-.19 1.56-.24 1.65-.11.81-.1.84-.13 1.05.11.01.55.15z" /><path d="m667.86 326.04l.28.13.54.27 1.21.61.97.46 1.4.68 2.87 1.39.9.45.61.07.68.07.04 0 .72 0 1.51 0 1.02-.22.58-.11.66-.14.93-.19 1.01-.22.91-.17.68-.13 1.24-.26.58-.11 1.68-.41 1.42-.33.7-.15 1.5-.32.62-.11 2.08-.43 1.67-.34 1.29-.27.97-.19 1.85-.39.99-.2 1.17-.11.42-1.05.03-.12.06-.29.27-1.27 0-.98.04-.51.11-1.5.08-.97.09-.86-.03-2.39-.01-1.73-.03-.75-.02-2.45 0-.52-.09-.94 2.9-.34.74-.08 2.13-.21.18.12 1.24-.41.17-.05-.55-1.04-.58-.94-.37-.47-.39-.49-1.54-1.56-.34-.5.03-.08 0-.25.17-.33.15-.27.16-.34-.02-.21-.06-.08.02-.07.02-.09.71-1.59.45-.83.46-.85.25-1.61.06-.35 2.73 1.61.77.45.3.14.41-.8.48-.92.52-.92.25-.46.74-1.69.04-.34.19-1.75.48-.75.73-1.12-.36-.95-.33-1.32.34-1.91-.13-.62-.17-.89-.59-1.38-.15-.36-.24-.52-.3-1.38-.01-.73-.02-.91.16-1.4.13-.3.39-1.04.01-1.28-.13-.31-.95-2.2-.4-.43-.49-.53-.75-1.04.12-1.07.27-1.05.51-.64-.18-.25-.96-1.22-1.1-1.44-1.14-1.48.13-2.34-.2-1.12-.85-1.63-.42-2.39-.05-1.49.6-1.5.78-1.25.89-1.22.35-1.17-.19-2.33-.22-2.21-.03-1.45.03-1.07.02-.64-.39-1.49-.13-.46-.24-.92.23-1.72.08-.62.54-1.97.33-1.25.28-1.14.35-1.5.34-1.68-.31-.99-.41-.96.06-1.03.03-.35.14-1.31.06-1.02-.03-.3-.15-1.08-.34-.61-.55-.95-.33-.81-.23-.73-.18-.83-.47-1.56-.01-1.1-.37-.95-.59-.76-.63-.83-.62-1.25-.54-1.27-.84-.12-1.2-.16-.77-.19-1.3-.4-.65-.37-.87-.64-.85-1.2-.42-.44-.79-.86-1.31-.76-1.23-1.2-.69.32-1.32.6-2.3 1.03-.42.32-.57.41-.87.66-1.73.8-.87.39-.73.32-1.58 1.01-1.72 1.07-1.22 1.31-1.15.99-.5.45-.87.76-1.71 1.52-1.53.44-1.39.42-1.37-1.33-1.24-.99-.76-.69-1.86-1.09-1.14.38-1.74-.03-.66-.18-1.65-.49-.76-.21-.96-.13-1.41-.25-.9.51-.73.44-.66.16-.98.26-2.11.05-2.16 1.51-.46.86-.54.75-.1.62-.13.64-.94 1.27-1.16 1.17-.71.79-.61.59-.36.66-.48.87-.54 1.25-.33.76-.39.89-.1.52-.08.29.11 1.11.12 1.18.07.23.45 1.41.44 1.36.46 1.04.34.39.92 1.04.15.38.56 1.41.15.32.7 1.11.91 1.41.94 1.43 1.87.58-.03.82-.07 1.35-.02.86.17.55.44 1.43.42 1.4.44 1.4.31 1.06.16.38.62 1.32.53 1.24-.08.18-.61 1.41-.61 1.41-.16 1.43-.09.8.01.6-.04 1.41-.04 1.39 0 .47-.38.95-.25.62.07.8.12 1.41.11 1.36.01.12 2.02 1.06.49.26 1.51.84.78.45.36.97.53 1.43.36 1.04-.09.38-.31 1.32-.2.69-.67.76-.8.86-.5.56-.84.97-.23.45-.77 1.41-.42.75-.36.62-.73 1.21-.3.22-1.99 1.32-1.58 1.42-.32.27-1.26 1.12-1.45 1.27-.61.11-2.04.39-1.96.3-1.63.22-.37.05-1.72.23-.33.16-1.75.92-2.02.71-.79.28-1.25.05-1.06.02-.82.05-1.13.08-.73.02-.16.07-.41.16-.74.29-.61.25-1.88.76.59.48 1.86 1.51 1.89 1.53 1.85 1.52 1.85 1.51 1.83 1.49.5.39-.05.64-.01.23.02.13.06.12.12.14.18.12.31.23.22.12.13.13.25.19.32.26.49.41.24.22.19.22.28-.22.84.9.69.73 1.06 1.13.31.31.64.62.66.63.26.36.37.45.56.67.5.54.26-.19.21-.18 1.38 1.41 1.37 1.37.5.5.77.77.44.44.48.48.73.78.7.67.08.07.45.4 1.51 1.45.34.32.66.63.32.31 1.66 1.56.18.18.52.27.65.37.62.34 1.07.6.83.47.95.45 1.78.84.76.37.63.31z" /><path d="m182.65 381.45l.53-.24 1.5-1.02.81-.54.72-.51 1.87-1.27 1.36-.95 1.41-.99 1.25-.9.34-.25.94-.68.54-.44 1.3-1.08.25-.21.6-.4.72-.52 1.54-1.12 1.49-1.09.54-.39.96-.71 1.22-.88.35-.25 1.51-1.11.18-.13 1.06-.71.36-.28.75-.58.65-.55.77-.68.51-.43.73-.6.71-.53 1.03-.82.47-.31.97-.65.04-.47-.09-1.71-.06-1.26-2.32-.21-.52-.04-1.87-.16-.96-.07-1.42-.1-.83-.08-.67-.08-1.35-.33.44-1.04.47-1.09-1.13-.38-.92-.3-.6-.33.53-1 .65-1.24.18-.41.31-.72.35-.94.61-1.6.13-.34.56-1.31.22-.52.43-.67-.97-.46-2.37-1.09-1.24-.57.57-.66-1.55-.42-1.83-.5-.55-.02-.03-.47-.03-.36.11-1.27.09-.92.13-.69.1-.56.35-1.09.82-1.81.01-1-1.18-.46-2.5-.95.1-.15.77-1.07-1.35-.58-1.26-.57-.78-1.06-.8-1.36-.39-.6.49-.69-.12-.09-.11-.08.67-.89-2.17-.98-2.09-.67-.91-.26-.69-.27-.97-.57-.31.64-.99-.7-.25-.18-.8.79-1.78-1.29-.39-.28-1.69-1.07-.68-.4-4.32-2.58-.09.14-2.21-1.04-1.82-.85-1.42-.61-.33.85-.36.46-.23 0-.68-.46-.47-.41-1.52-1.63-.44-.45.22-.26-1.3-1.36.69-1.27-.82-.51-.51.87-1.35 2.24-.47.65-1.1 1.61-.59.77-.71.83-.84-1.64-1.53.73-1.16-2.1-.78-1.47-.58-1.07-1.01-1.93-.13-.22-.83.14-2.11.35-.94.19-.99.28-1.33.26-.5.04-.67.01-.39-.01-.05.44-1.15-.14-.98.12-1.01.2-.5.14-.65.22-1.54.47-.3-.71-1.78.05-.04-.33.08-.81.28-2.04-.01-.72-.89-.36-1.66-.68-.58-.2-.07.23-.45 1.08-.23.56-.29.62-.6 1.01-.24.39-.17.12-.63.46-.46-.31-.17-.1-.23.31-1.05-.46-1.08-.62-1.11.67-.49.57-.32 1.19.04.32.02.25.11 1 .01.63-.1.5-.32 1.04-.5 1.45-.12.57-.38 1.17-.2.63-.23-.39-.29.53-.3.72-.31.55-.29.45-.59 1.01-.12.37-.3 1.11-.24.53-.27.79-.26.99-.16 1.05 0 .26.02.21.13.16.64.36.38.18.27.17.34.25.21.55.1.37-.4 1.17-.17.58-.26.86-.09.5.04.27-.53-.01-.46-.09-.1.24-.03.26-.06.51.04.79.26.81.3.68-.95.43-1.15.43.56.73.24.25.55.29.82.81-1.78.75-.87.22-.64.17-.26-.34-.5-.26-.38.9-.31.16-.61.21-.6.21-.83.32-1.27.57-.19-.32-.24-.51-2.2.14-1.45.11.06.39-1.27.13-2.64.25-1.28.11.3.72-1.57.17-1.08.12-.4-.65-1.2.66-1.16.65.26.56.41.79-.84-.35-3.51-1.39-1.03 2.5-.67 1.93-.29-.1.28 1.21-.71 3.03-1.18-.46-1.04 2.14-.49 1.02.38.2-.39.77-.24.51-1.45-.37-.43 1.88-.42 1.87-.3 1.31-.6-.12-.25.83-.65 2.09.11.11.35.08-.33 1.32-1.16-.3-.2.63-.25.95-.49 1.48.11.08-1.53 2.01-.88 1.14.05.16 2.17.72 2.34.79 1.68.58.39.15.18.1.17.16.89 1.07.9 1.08.76.92 1.1 1.33 1.46 1.76.37.44 1.81 2.19.16 0 .16-.21 1.49-1.99 1.52-1.99.83-1.12.71-.92-.02-.22.33.24.24 0 2.54.16.45.54.88 1.06.64.79.72.88.13.11.59 1.01.4.69.78 1.31.35.48.25.39.26.2.82.86 1.71 1.79 1.78 1.83-.16.2.15.18 1.73 2.08.81 1.02 2.15 2.65 0-.17.72-.8 1.83-2.01 1.81-2 .17-.2.31-.24 2.44-1.13 1.95-.89.4-.18 3.04-1.72 1.55-.88.3-.35.07.17.97.45 2.8 1.29.89.41 2.05.93 1.31.61 1.29.58.26-.57.91-1.98.89-1.94.93-1.99.98-2.12.62.15.33.1 1.88.76.16-.07.1-.25.2.07.17.14 4.46 1.78.77.33 3.15 1.32.64.26.96.39.65.38.49.33.17.14 1.07 1.26 1.42 1.69.66.84 1.44 1.78.32.29.17.17.08.35 1.01 1.26.22.16 2.07-1.35.42-.25 1.95-1.15 1.74-1.31.46-.36 2.2-1.6.93-.65 2.03-1.41 1.61-1.1.82-.52.43-.21z" /><path d="m364.18 357.19l1.06-1.26 1.5-1.7 1.17-1.21.85-.8 1.37-1.19.77-.63.14.22.19.3.56-.39.67-.45.54-.34.44-.27.4-.24.69-.39.61-.33.97-.47.66-.32.98-.43.64-.27.76-.31.71-.26.71-.26.59-.2.45-.16.72-.21.97-.27 1.07-.27.5-.12.66-.13 1.65-.33.94-.18 1.66-.29 1.52-.28.92-.16 1-.16 1.32-.21 2.79-.45 1.88-.29 1.37-.24 1.3-.21 1.09-.18 1.16-.19 1.83-.3.93-.16 1.78-.27 1.44-.23 3.4-.54 1.55-.24 1.52-.26 1.6-.26 1.43-.24 1.47-.24 2.93-.49 2.94-.49 2.92-.49.78-.13 1.39-.22 1.68-.28.86-.13 1.41-.21 0-.01 2.13-.35 2.19-.36.85-.14 1.86-.32.36-.06 1-.17 1.3-.21 1.37-.22 1.66-.29 1.92-.32 2.09-.35 1.07-.18 1.35-.22.03-.01.01 0 1.26-.23 1.4-.28 1.59-.36 1.56-.42 1.37-.45 1.02-.4.8-.35-.91-.82-1.1-1.05-.6-.56-.64-.71-.81-.97-.78-1.03-.58-.95-.76-1.2-.77-1.56-.42-1.04-.21-.6-.11-.37-.18-.64-.21-1-.12-.67-.16-1.1-.18-1.55-.12-.73-.1-.77-.09-.79-.14-.65-.12-.51-.23-.7-.23-.83-1.2.23-1 .16-1.91.36-1.66.29-2.86.48-.44.07-.83.14-.76.12-1.01.14-1.6.18-.55.05-.77.04-1.23-.02-1.29-.08-1.13-.09-.94-.12-1.08-.17-1.29-.25-1.49-.35-.25-.06-.86-.24-1.84-.55-1.1-.34-1.81-.62-.98-.34-2.26-.76-2.34-.81-.5-.18-.68-.22-.1-.03-1.03-.3-.33-.1-.5-.14-.84-.24-1-.26-.81-.19-.7-.16-1.58-.33-1.01-.19-1.48-.25-1.15-.18-2.04-.24-.6-.06-1.61-.12-.95-.07-1.15-.05-1.47-.03-.75-.02.29-1.56.21-1.23.33-1.85.29-1.87.36-1.86.33-1.82.18-.86.31-1.45.28-1.24.38-1.85.43-1.86.45-1.85.31-1.23.41.17.21-.8.34-1.37.18-.7.06-.12.26-.2.24-.23.15-.24.74-1.46.75-1.46.24-.43.59-1.05.79-1.46.82-1.48.21-.37.2-.35.12-.18.36-.5-1.11-.3-1.21-.18-.59-.06-.44-.06-.79-.04-.46-.03-1.46.01-1.07.05-.62.01-1.01.03-.68.01-.19.01-1.97.09-1.41.07-1.08.07-.83.01-.63.02-.4.02-1.58-.04-1.47-.06-2.53-.02-2.84-.01-3.06.04-.9-.03-1.14-.05-.9-.04-1.25-.01-1.57-.02-1.09-.01-2.28-.02-2.17.01-1.32.03-.76.02-1.56.04-1.07-.04-1.38-.09-1.58-.16-.48-.07-2.61-.46-.32-.04-.33-.02-.23.01-2.63.33-.87.13-3.43.56-.8.15-.42.08-.34.01-.4 0-.35-.03-.39-.05-.8-.24-1.9-.56-.22-.09-.46-.17-.93-.51-3.47-2.18-.94-.56-2.51-1.53-2.16-1.31-1.32-.76-.6-.31-.56-.24-.24-.06-1.13-.3-.35-.11-.6-.25-1.7-.95-.27-.19-.44-.39-.84-.89-.13-.14-2.1-2.26-1.09-1.17-.33-.26-.43-.26-.43-.19-.37-.16-.85-.24-.64-.08-2.24-.3-.62-.09-.63-.06-.87.02-.86.05-.42.3-.95 2.5.23.9.59 2.4.26 1.09.22 1.3.39 2.39.05.23 1.52 2.12.94 1.3.29 1.13.3 1.2.07 1.22.12 1.68.04.75.15 2.1-.87.34-1.22.49.49 1.08.39.85.1.22.04.93 1.19.97.38.32 1.81 1.48-.39.94-1.02 2.43-1.1 2.54.7 2.28.47 1.5.48.9 1.1 2.09-.1.35-.31 1.12-.34 1.32-.35 1.39-.25 1.04-.57 2.39-.19.76-3.54 1.27-3.91.4-3.3.84-.84 4.19-.73 2.01-.39 1.14-.6 1.9-.82 1.9-.5 1.16-.17.4-.34.59-2.11 3.17-1.63 2.41-.44.66 2.2-.18 1.64.62.78.29 2.79 1.27 3.28 1.59.79.39 3.37 1.28 2.56.91 2.38.87 5.38-.66.43-.4.88-.85 2.09-1.97.98-.93.81-.78 2.06 1.44.29.2 2.37 1.36.45.64 1.6 2.32 1.51 2.18 1.34 1.89.1.08.13.02.11-.03.09.09.03.02.45.26.52.33-.41.83-.49 1.05 4 1.61 1.29.53 4.05 1.65-.37 1.35-.43 1.63-.11.32-.24.78 2.27.87 2.71 1.11.29.03 2.56 2.52 1.92 1.88.78.75.21.2.35.17 1.3.84.53-.01z" /></g></g></svg>